<?xml version="1.0" encoding="UTF-8"?>
<svg version="1.1" xmlns="http://www.w3.org/2000/svg" width="1024" height="1024">
<path d="M0 0 C337.92 0 675.84 0 1024 0 C1024 337.92 1024 675.84 1024 1024 C686.08 1024 348.16 1024 0 1024 C0 686.08 0 348.16 0 0 Z " fill="#E0DEDC" transform="translate(0,0)"/>
<path d="M0 0 C0.66 0 1.32 0 2 0 C4.43851631 5.11729194 6.87363991 10.2361807 9.3059082 15.35644531 C10.1302194 17.0905898 10.95538569 18.82432815 11.78149414 20.55761719 C16.23261246 29.89820105 20.60391038 39.25631697 24.71257019 48.75306702 C27.53641368 55.27307927 30.67663346 61.59762342 33.92773438 67.91308594 C34.66810473 69.35404354 35.40347595 70.79757682 36.13476562 72.24316406 C37.28804416 74.52161602 38.45476398 76.79271835 39.625 79.0625 C40.14682861 80.0978186 40.14682861 80.0978186 40.67919922 81.15405273 C43.34357251 86.25735235 46.68829092 92.34414546 52 95 C54.16728626 95.27532062 54.16728626 95.27532062 56.625 95.3125 C57.44226563 95.34988281 58.25953125 95.38726562 59.1015625 95.42578125 C66.75191997 94.30194168 73.38511756 88.93557491 79.6875 84.75 C87.37854927 79.6926863 95.12086255 74.75911404 103 70 C104.10325151 73.36440674 103.88275565 75.74789831 103.21264648 79.20263672 C103.01453873 80.24702911 102.81643097 81.29142151 102.61231995 82.36746216 C102.27635048 84.0688887 102.27635048 84.0688887 101.93359375 85.8046875 C101.70514267 86.99770477 101.47669159 88.19072205 101.24131775 89.41989136 C100.75153522 91.97408629 100.25811613 94.52758608 99.76141357 97.08044434 C99.01666448 100.91421566 98.28368088 104.75002567 97.55517578 108.58691406 C96.57287424 113.75985908 95.58697382 118.93209542 94.59667969 124.10351562 C93.55059903 129.56764692 92.50834226 135.03249168 91.46972656 140.49804688 C91.33861544 141.18797352 91.20750431 141.87790016 91.07242012 142.58873367 C90.55072292 145.33441272 90.02914321 148.08011403 89.50779343 150.82585907 C88.13772647 158.04074324 86.76114748 165.25416401 85.35887146 172.46286011 C84.77349494 175.48249717 84.19839633 178.50401024 83.62692261 181.52630615 C83.26864916 183.4023467 82.89654117 185.27572964 82.52368164 187.14892578 C79.67713604 201.06708155 79.67713604 201.06708155 82.38525391 214.38745117 C84.48277833 216.48212139 85.6829162 216.68641069 88.625 216.8125 C93.19693926 216.61343153 95.31729863 215.36996462 98.5625 212.1875 C100.0773936 210.48954571 101.55586135 208.75852636 103 207 C103.71800781 206.13375 104.43601562 205.2675 105.17578125 204.375 C106.66324015 202.55728824 108.1408727 200.73149806 109.609375 198.8984375 C112.18697303 195.77331048 114.87418757 192.78446444 117.625 189.8125 C118.09736084 189.30211182 118.56972168 188.79172363 119.05639648 188.26586914 C119.51602783 187.76949951 119.97565918 187.27312988 120.44921875 186.76171875 C123.70648147 183.23509587 126.86870546 179.63838677 130 176 C130.42893555 175.50274414 130.85787109 175.00548828 131.29980469 174.49316406 C138.28163625 166.3957521 145.18200592 158.2358955 152 150 C152.99 150.33 153.98 150.66 155 151 C155.98659649 153.64095035 156.77879447 156.16126259 157.5 158.875 C157.71720703 159.64569824 157.93441406 160.41639648 158.15820312 161.21044922 C159.0993507 164.57118887 159.98474452 167.93751122 160.8125 171.328125 C162.55894895 178.43299686 164.66300836 183.77533891 171 188 C180.44444076 189.11377509 189.21523603 187.12763233 198.2890625 184.71875 C199.60813764 184.38098742 200.92759456 184.04471275 202.24740601 183.70983887 C205.67900065 182.83548186 209.10571624 181.94340978 212.53149414 181.04656982 C218.04641227 179.60674207 223.56915967 178.19709789 229.09064865 176.7827301 C231.0101448 176.2886928 232.92789572 175.78789069 234.84561157 175.2869873 C236.0046701 174.98667603 237.16372864 174.68636475 238.35791016 174.37695312 C239.37793121 174.11047974 240.39795227 173.84400635 241.44888306 173.56945801 C244 173 244 173 247 173 C244.72448947 183.6138271 241.90705992 194.04266046 238.890625 204.46875 C238.51328742 205.77668744 238.13596823 207.0846302 237.75866699 208.39257812 C236.19548959 213.80426545 234.62754959 219.21451141 233.04345703 224.62011719 C232.06244937 227.96953655 231.09326311 231.32219187 230.13134003 234.67713928 C229.59265156 236.5434228 229.04115788 238.40599521 228.48931885 240.26843262 C225.16860306 251.12145098 225.16860306 251.12145098 227.48828125 261.80859375 C230.78356324 264.6836376 234.20145581 266.32231591 238.1875 268.0625 C238.94474365 268.40539062 239.7019873 268.74828125 240.48217773 269.1015625 C242.64954224 270.08002724 244.82368567 271.04164706 247 272 C248.54300781 272.69416016 248.54300781 272.69416016 250.1171875 273.40234375 C252.07280259 274.28018375 254.03530352 275.1426779 256 276 C251.93463939 280.28899538 247.50025196 283.84986247 242.8125 287.4375 C241.19915445 288.68220832 239.58587509 289.92700245 237.97265625 291.171875 C237.14910645 291.80544922 236.32555664 292.43902344 235.47705078 293.09179688 C231.55802255 296.11083144 227.65401048 299.1490865 223.75 302.1875 C222.99823486 302.77200928 222.24646973 303.35651855 221.47192383 303.95874023 C216.40929312 307.89671015 211.36069733 311.85204445 206.32275391 315.8215332 C203.12375477 318.33961168 199.91485731 320.84416618 196.6953125 323.3359375 C188.7045769 329.52206349 180.78285032 335.77164479 172.96704102 342.17749023 C167.55903821 346.59067191 162.02541226 350.82155017 156.45629883 355.02856445 C150.30155364 359.70514843 144.34456095 364.6032556 138.44360352 369.59545898 C137.43898071 370.43765991 137.43898071 370.43765991 136.4140625 371.296875 C135.8257666 371.79541992 135.2374707 372.29396484 134.63134766 372.80761719 C133 374 133 374 130 375 C124.80192238 385.1012057 129.13472814 397.64328471 131.5 408.0625 C132.0019596 410.32131822 132.50070826 412.58081631 132.9979248 414.84068298 C133.30605686 416.23595518 133.61753164 417.63049439 133.93273926 419.02418518 C135 423.78402544 135 423.78402544 135 426 C127.84300595 425.30061947 120.79230754 424.19094814 113.7038269 422.987854 C111.48739747 422.61227366 109.27028149 422.24099228 107.05297852 421.87060547 C98.00147293 420.35650334 88.95337702 418.82281769 79.90720081 417.27721596 C73.99638542 416.2677783 68.08442008 415.26522576 62.17183971 414.26618004 C58.44271576 413.63567523 54.71425415 413.00168293 50.98709106 412.35968018 C47.41646371 411.74465536 43.84445946 411.13832365 40.2713356 410.53797913 C38.3095534 410.20604974 36.34930805 409.86507653 34.38912964 409.52380371 C27.1836747 408.32208193 20.30470445 407.70412183 13 408 C11.50622674 410.98754651 11.87004797 413.69839061 11.8671875 417.03125 C11.86582291 417.75730438 11.86445831 418.48335876 11.86305237 419.23141479 C11.86099741 421.65432032 11.86743379 424.07710645 11.875 426.5 C11.87682785 427.7565036 11.87682785 427.7565036 11.87869263 429.03839111 C11.93101855 460.0350988 12.9703542 491.02299646 14 522 C5.42 522 -3.16 522 -12 522 C-12.1593848 511.10206455 -11.85085075 500.26411093 -11.34375 489.37890625 C-11.31078827 488.66743816 -11.27782654 487.95597008 -11.24386597 487.22294235 C-10.93157533 480.50832984 -10.60883025 473.79422851 -10.28173828 467.08032227 C-9.55306768 452.06595045 -8.86339325 437.0621417 -8.78125 422.02734375 C-8.77017212 420.9454628 -8.75909424 419.86358185 -8.74768066 418.74891663 C-8.74909058 417.76434982 -8.75050049 416.77978302 -8.75195312 415.76538086 C-8.75102661 414.91181503 -8.7501001 414.05824921 -8.74914551 413.17881775 C-8.86597002 410.70716211 -8.86597002 410.70716211 -11 408 C-19.71086009 406.37299678 -29.28377951 408.99449831 -37.89453125 410.51953125 C-39.41456355 410.78210939 -40.93472327 411.0439509 -42.45500183 411.30509949 C-45.62700586 411.85187586 -48.79789686 412.40456793 -51.96801758 412.9621582 C-55.9904455 413.66960001 -60.01457645 414.36666946 -64.03949451 415.0597887 C-67.92931898 415.73015839 -71.81819296 416.40596858 -75.70703125 417.08203125 C-76.42816416 417.20691233 -77.14929707 417.3317934 -77.89228249 417.46045876 C-86.30169388 418.92073235 -94.66284009 420.51251798 -102.99836731 422.3536377 C-107.26994276 423.27346555 -111.55913825 424.01129906 -115.875 424.6875 C-116.65101563 424.81705078 -117.42703125 424.94660156 -118.2265625 425.08007812 C-123.21316412 425.87073895 -127.95137711 426.12075294 -133 426 C-131.39196629 415.80360445 -129.63718059 405.68746093 -127.27050781 395.63549805 C-125.11269315 386.34757002 -125.11269315 386.34757002 -127.5 377.5625 C-127.995 377.046875 -128.49 376.53125 -129 376 C-129 375.34 -129 374.68 -129 374 C-129.5875708 373.72776611 -130.1751416 373.45553223 -130.78051758 373.17504883 C-132.95641062 372.02307729 -134.63648337 370.78579693 -136.51171875 369.19921875 C-137.17824463 368.64097412 -137.84477051 368.08272949 -138.53149414 367.50756836 C-139.24297607 366.9069458 -139.95445801 366.30632324 -140.6875 365.6875 C-146.5464655 360.79756335 -152.47387227 356.03834493 -158.5625 351.4375 C-164.1301767 347.2267969 -169.60389741 342.92852557 -175 338.5 C-181.13569058 333.46667436 -187.38387826 328.6076366 -193.70605469 323.8112793 C-198.4424291 320.21113434 -203.11610777 316.54350663 -207.75 312.8125 C-213.90335119 307.859016 -220.12936695 303.01212653 -226.40722656 298.21777344 C-229.10971682 296.15155311 -231.80441143 294.07521066 -234.5 292 C-235.56636989 291.17964023 -236.63277626 290.35932788 -237.69921875 289.5390625 C-243.1328125 285.359375 -248.56640625 281.1796875 -254 277 C-251.25532615 274.80918936 -248.63526701 273.25863809 -245.41015625 271.87890625 C-244.54326172 271.50056641 -243.67636719 271.12222656 -242.78320312 270.73242188 C-240.97411433 269.95450071 -239.16422075 269.17844838 -237.35351562 268.40429688 C-229.45201805 265.2008703 -229.45201805 265.2008703 -224 259 C-223.30915288 252.35777834 -224.6538735 246.57824855 -226.61328125 240.27734375 C-227.16758353 238.41913881 -227.72177957 236.56090218 -228.27587891 234.70263672 C-228.56223206 233.75829773 -228.84858521 232.81395874 -229.14361572 231.84100342 C-230.50527298 227.32378723 -231.80350784 222.78861556 -233.10546875 218.25390625 C-233.6189617 216.47195364 -234.13263367 214.6900526 -234.64648438 212.90820312 C-234.90002686 212.027854 -235.15356934 211.14750488 -235.41479492 210.24047852 C-235.93368288 208.44215877 -236.45421436 206.6443125 -236.97631836 204.84692383 C-240.04074785 194.29103322 -242.91379028 183.80072814 -245 173 C-236.58368848 174.69313623 -228.29547572 176.67148154 -220 178.875 C-211.01326182 181.26185735 -201.99669678 183.43068759 -192.91796875 185.43896484 C-192.05300781 185.63055176 -191.18804687 185.82213867 -190.296875 186.01953125 C-189.15750488 186.26860229 -189.15750488 186.26860229 -187.99511719 186.52270508 C-186 187 -186 187 -183 188 C-174.32647942 189.00826834 -174.32647942 189.00826834 -166.4375 186.125 C-160.85714034 178.97069275 -158.79576673 169.46286545 -156.25 160.875 C-155.93417969 159.823125 -155.61835938 158.77125 -155.29296875 157.6875 C-154.52457476 155.12618669 -153.76033181 152.56371576 -153 150 C-149.37186484 151.687218 -147.33086449 153.5919388 -144.6875 156.625 C-143.89730469 157.52476562 -143.10710937 158.42453125 -142.29296875 159.3515625 C-141.53628906 160.22554687 -140.77960938 161.09953125 -140 162 C-138.833687 163.33364271 -137.66705181 164.66700376 -136.5 166 C-135.94054687 166.64324219 -135.38109375 167.28648437 -134.8046875 167.94921875 C-132.77041859 170.26088797 -130.6977769 172.5353143 -128.625 174.8125 C-125.55253227 178.21083552 -122.61557378 181.67590523 -119.75 185.25 C-115.10090472 191.0001968 -110.08852404 196.36231739 -105.03125 201.75 C-102.06342417 204.91568089 -99.1888127 208.15244941 -96.3671875 211.44921875 C-95.91601562 211.96097656 -95.46484375 212.47273437 -95 213 C-94.54882812 213.55558594 -94.09765625 214.11117187 -93.6328125 214.68359375 C-91.38774101 216.4936155 -89.85218105 216.4004659 -87 216.375 C-85.700625 216.38660156 -85.700625 216.38660156 -84.375 216.3984375 C-81.42878246 215.90417074 -80.74183373 215.41329101 -79 213 C-77.37973671 200.84174524 -80.11694715 188.41607422 -82.3125 176.5 C-82.66699086 174.52029852 -83.0208141 172.5404774 -83.37402344 170.56054688 C-86.74301658 151.8371358 -90.41965415 133.16961827 -94.1418457 114.51367188 C-96.26656592 103.86410768 -98.36819371 93.21257699 -100.328125 82.53125 C-100.49874451 81.60896606 -100.66936401 80.68668213 -100.84515381 79.7364502 C-100.99841125 78.89078491 -101.1516687 78.04511963 -101.30957031 77.17382812 C-101.51081512 76.06787292 -101.51081512 76.06787292 -101.71612549 74.9395752 C-102 73 -102 73 -102 70 C-99.32764672 71.30142274 -96.76866078 72.69760442 -94.234375 74.25 C-93.51644775 74.68900635 -92.79852051 75.1280127 -92.05883789 75.58032227 C-91.29692139 76.04881592 -90.53500488 76.51730957 -89.75 77 C-88.96165771 77.48331787 -88.17331543 77.96663574 -87.36108398 78.46459961 C-67.61347174 90.59101884 -67.61347174 90.59101884 -61 95 C-56.2920311 95.69687664 -52.19111699 95.51381517 -47.8125 93.625 C-40.14587042 86.46947906 -35.76783949 76.98916773 -31.375 67.625 C-30.76911831 66.34970964 -30.16257778 65.0747321 -29.55541992 63.80004883 C-27.68950644 59.87327568 -25.84306338 55.93753823 -24 52 C-23.42302606 50.76968851 -22.84604064 49.5393824 -22.26904297 48.30908203 C-14.75024771 32.25047453 -7.36788244 16.12829689 0 0 Z " fill="#CF120E" transform="translate(511,153)"/>
<path d="M0 0 C14.52 0 29.04 0 44 0 C53.11215561 23.12039484 53.11215561 23.12039484 56.6953125 33.36328125 C58.66751507 38.8606483 60.77268906 44.30678853 62.88305664 49.75244141 C64.92623648 55.06085097 66.85193874 60.4034931 68.7265625 65.7734375 C72.77162883 77.33272212 77.17469734 88.75714054 81.53833008 100.19897461 C87.31922578 115.36883787 92.86606041 130.59818124 98 146 C86.78 146 75.56 146 64 146 C59.625 134.25 59.625 134.25 58.25634766 130.56347656 C57.89589355 129.59893555 57.53543945 128.63439453 57.1640625 127.640625 C56.79748535 126.65610352 56.4309082 125.67158203 56.05322266 124.65722656 C55.07959711 122.04896772 55.07959711 122.04896772 53.86474609 119.89746094 C53 118 53 118 53 114 C32.87 114 12.74 114 -8 114 C-8.99 116.97 -9.98 119.94 -11 123 C-12.34566255 126.84404111 -13.73521031 130.67171485 -15.125 134.5 C-15.48464844 135.5003125 -15.84429688 136.500625 -16.21484375 137.53125 C-16.55902344 138.48 -16.90320313 139.42875 -17.2578125 140.40625 C-17.5686377 141.26541016 -17.87946289 142.12457031 -18.19970703 143.00976562 C-19 145 -19 145 -20 146 C-22.52094076 146.08847743 -25.01430893 146.11527301 -27.53515625 146.09765625 C-28.66503212 146.09553383 -28.66503212 146.09553383 -29.81773376 146.09336853 C-32.2326956 146.08775376 -34.64756601 146.07519883 -37.0625 146.0625 C-38.69596221 146.0574869 -40.32942586 146.05292366 -41.96289062 146.04882812 C-45.97529585 146.03777954 -49.98763241 146.02050506 -54 146 C-49.85897984 133.12321197 -45.2411 120.4684502 -40.39703369 107.84069824 C-39.15688281 104.60768241 -37.92133806 101.37293906 -36.68701172 98.13769531 C-35.40516328 94.77797774 -34.12308261 91.41835145 -32.83966064 88.05923462 C-28.77855456 77.42973337 -24.74294866 66.79067959 -20.72012329 56.14663696 C-19.65473632 53.32865354 -18.5875613 50.511352 -17.52026367 47.6940918 C-14.26008984 39.07635114 -11.04606409 30.44777754 -7.97827148 21.75952148 C-7.15395205 19.43427003 -6.30839486 17.12058729 -5.4375 14.8125 C-3.58187015 9.89104693 -1.79745359 4.94299738 0 0 Z " fill="#C8110E" transform="translate(672,669)"/>
<path d="M0 0 C7.92 0 15.84 0 24 0 C24 42.57 24 85.14 24 129 C16.41 129 8.82 129 1 129 C0.67 125.7 0.34 122.4 0 119 C-0.70125 119.7425 -1.4025 120.485 -2.125 121.25 C-11.42717131 130.14772908 -21.11144242 131.53864798 -33.52709961 131.48950195 C-44.64118791 131.15157711 -54.16470617 126.98597256 -62 119 C-71.6840751 106.66433291 -74.17858909 93.91612486 -74.1875 78.625 C-74.19974609 77.52671875 -74.21199219 76.4284375 -74.22460938 75.296875 C-74.24981382 61.28320579 -69.93127681 48.34265009 -60.1171875 38.01953125 C-48.75263605 27.5686006 -36.55451027 26.27105502 -21.65625 26.54296875 C-12.73520272 27.00638067 -7.04505594 30.71620805 0 36 C0 24.12 0 12.24 0 0 Z " fill="#C9100C" transform="translate(526,686)"/>
<path d="M0 0 C7.21704208 5.83278975 11.01006764 13.1213144 12.2578125 22.23828125 C12.34249283 24.69788967 12.37559578 27.15954346 12.37133789 29.62060547 C12.37148392 30.33349228 12.37162994 31.04637909 12.3717804 31.78086853 C12.37108822 34.1182671 12.36332862 36.45558424 12.35546875 38.79296875 C12.3536021 40.42107093 12.35217936 42.04917367 12.35118103 43.67727661 C12.34737532 47.94829884 12.33756176 52.2192867 12.32647705 56.49029541 C12.31622098 60.85420263 12.31167444 65.21811544 12.30664062 69.58203125 C12.29593765 78.13413206 12.27835672 86.68619841 12.2578125 95.23828125 C4.6678125 95.23828125 -2.9221875 95.23828125 -10.7421875 95.23828125 C-11.0721875 91.60828125 -11.4021875 87.97828125 -11.7421875 84.23828125 C-12.2371875 84.96015625 -12.7321875 85.68203125 -13.2421875 86.42578125 C-19.58221422 93.55831131 -28.4929273 96.72625197 -37.7421875 98.23828125 C-50.35561475 98.89332639 -60.49358325 98.11646003 -70.7421875 90.23828125 C-77.29992239 83.57033233 -79.86970416 76.6027848 -80.1796875 67.36328125 C-79.96867298 59.14250711 -78.22135273 52.63351201 -72.6796875 46.42578125 C-63.53005968 38.08289481 -51.06454979 36.01877686 -39.1796875 35.11328125 C-38.12007813 35.02836426 -37.06046875 34.94344727 -35.96875 34.85595703 C-28.20799976 34.26726764 -20.52601908 33.99161053 -12.7421875 34.23828125 C-13.0729677 25.25533442 -13.0729677 25.25533442 -16.7421875 17.23828125 C-23.23965848 12.22981404 -28.73637205 11.46869685 -36.7421875 12.23828125 C-42.43878788 13.82402175 -46.59700608 16.08018373 -49.7421875 21.23828125 C-50.7321875 23.71328125 -50.7321875 23.71328125 -51.7421875 26.23828125 C-59.6621875 26.23828125 -67.5821875 26.23828125 -75.7421875 26.23828125 C-74.70882028 15.90460906 -72.9965778 9.82772469 -65.3671875 2.86328125 C-48.41245068 -10.16470916 -18.08723806 -11.62014867 0 0 Z " fill="#CA120F" transform="translate(423.7421875,719.76171875)"/>
<path d="M0 0 C6.02803717 4.41297815 10.28087074 10.96083126 11.9375 18.25 C11.9375 19.9 11.9375 21.55 11.9375 23.25 C3.6875 23.25 -4.5625 23.25 -13.0625 23.25 C-14.0525 20.94 -15.0425 18.63 -16.0625 16.25 C-22.3366119 11.17731379 -28.21231528 10.57367639 -36.0625 11.25 C-39.60061425 12.14439319 -42.30681272 13.54306674 -45 16.0625 C-46.47260958 19.09434326 -46.60671134 20.91670553 -46.0625 24.25 C-42.48373479 28.67281361 -39.11874246 30.25006538 -33.6875 31.375 C-32.98923096 31.53548828 -32.29096191 31.69597656 -31.5715332 31.86132812 C-26.8191262 32.93536676 -22.03576106 33.83889298 -17.25 34.75 C-5.97846956 36.96871178 3.88247676 39.99773442 11.3125 49.1875 C15.53061485 57.13702415 16.44338611 65.75082662 14.0625 74.4453125 C10.01757313 85.06324553 4.24631496 90.29453011 -5.9765625 95.02734375 C-20.37821142 100.73331351 -38.5095289 99.86105425 -52.734375 94.18359375 C-61.63333908 90.09816024 -67.76189163 84.92608021 -72.0546875 76.0703125 C-73.4227906 72.2417449 -74.18053332 68.21885005 -75.0625 64.25 C-66.4825 64.25 -57.9025 64.25 -49.0625 64.25 C-48.0725 66.56 -47.0825 68.87 -46.0625 71.25 C-43.0014835 74.87488797 -40.56749443 76.84374483 -36.0625 78.25 C-33.38954994 78.46484045 -30.85636602 78.57497134 -28.1875 78.5625 C-27.50558594 78.57861328 -26.82367188 78.59472656 -26.12109375 78.61132812 C-21.07183129 78.61613695 -17.52924395 77.64009983 -13.0625 75.25 C-11.02218245 72.18952368 -10.74656476 71.31504006 -10.6875 67.8125 C-10.65914063 67.05066406 -10.63078125 66.28882813 -10.6015625 65.50390625 C-11.24995254 62.33338887 -12.54511616 61.24029342 -15.0625 59.25 C-21.88850747 56.24655671 -29.24201423 54.98005865 -36.5625 53.8125 C-46.35100631 52.22917811 -57.99651631 49.74031169 -65.0625 42.25 C-70.82508954 34.19025062 -73.36355431 27.20369702 -72.0625 17.25 C-68.75064538 7.42442393 -63.14800322 0.87055345 -54.125 -4.0625 C-37.065879 -11.64994375 -15.79518421 -9.37757205 0 0 Z " fill="#C8120F" transform="translate(317.0625,719.75)"/>
<path d="M0 0 C10.56 0 21.12 0 32 0 C32 48.18 32 96.36 32 146 C21.44 146 10.88 146 0 146 C0 97.82 0 49.64 0 0 Z " fill="#CA0F0C" transform="translate(569,669)"/>
<path d="M0 0 C6.98103451 6.98103451 8.81185503 16.02101026 9.1875 25.625 C9.00353703 34.65068327 6.28174132 43.1615988 0.5234375 50.19140625 C-5.52663393 55.92377987 -13.25051028 57.26265918 -21.3046875 57.14453125 C-27.04271268 56.48364759 -31.1966418 54.05969187 -35.0078125 49.7578125 C-42.04554725 39.93218282 -42.23563674 28.47067564 -41.1875 16.8125 C-39.67135761 9.06837152 -36.14660882 2.99654349 -30.1875 -2.1875 C-20.61629841 -8.31306902 -8.8834479 -6.09648385 0 0 Z " fill="#E1DEDC" transform="translate(518.1875,739.1875)"/>
<path d="M0 0 C1.97944936 2.96917403 2.29350581 3.65702279 2.3125 7 C2.32925781 7.680625 2.34601563 8.36125 2.36328125 9.0625 C1.88023911 11.63872476 1.05888913 12.39864179 -1 14 C-3.30566406 14.30883789 -3.30566406 14.30883789 -6.015625 14.22265625 C-7.01335937 14.20267578 -8.01109375 14.18269531 -9.0390625 14.16210938 C-10.09867187 14.12923828 -11.15828125 14.09636719 -12.25 14.0625 C-21.73084739 13.89766512 -30.66414785 14.32433423 -40 16 C-39.01 16 -38.02 16 -37 16 C-33 16 -29 16 -25 16 C-25.50144531 16.61359375 -26.00289063 17.2271875 -26.51953125 17.859375 C-28.27502986 19.88172436 -28.27502986 19.88172436 -27.6875 22.25 C-27.3471875 23.11625 -27.3471875 23.11625 -27 24 C-28.65 24.33 -30.3 24.66 -32 25 C-32 25.99 -32 26.98 -32 28 C-29.03 28 -26.06 28 -23 28 C-23 28.33 -23 28.66 -23 29 C-23.73605469 29.17015625 -24.47210938 29.3403125 -25.23046875 29.515625 C-32.8211053 31.36564349 -32.8211053 31.36564349 -39 36 C-40.85243916 39.70487832 -40.4585162 43.95614188 -40 48 C-38.2594472 51.09431608 -36.86098594 52.46821456 -33.875 54.3125 C-26.80910387 56.00217081 -20.77123779 55.21052158 -14.05078125 52.66796875 C-11.32393798 51.77979694 -8.84095226 51.78146521 -6 52 C-6 53.65 -6 55.3 -6 57 C-4.02 56.505 -4.02 56.505 -2 56 C-1.505 59.96 -1.505 59.96 -1 64 C-12.26598418 73.68422709 -24.53158299 75.59746811 -39 75 C-46.97766035 74.25817488 -54.21483537 70.84878084 -59.859375 65.109375 C-66.76892441 56.4211297 -68.08912197 48.0026072 -67 37 C-65.3678277 29.83981557 -61.97432835 24.31295896 -56 20 C-46.49303561 14.73546596 -37.1717181 12.69282919 -26.4375 11.875 C-25.37789063 11.79008301 -24.31828125 11.70516602 -23.2265625 11.61767578 C-15.46581226 11.02898639 -7.78383158 10.75332928 0 11 C0 7.37 0 3.74 0 0 Z " fill="#C8120F" transform="translate(411,743)"/>
<path d="M0 0 C2.71532327 1.35766163 2.81967454 2.63858625 3.87939453 5.45629883 C4.239617 6.40430862 4.59983948 7.35231842 4.97097778 8.32905579 C5.35438324 9.36128769 5.7377887 10.39351959 6.1328125 11.45703125 C6.52951141 12.51153976 6.92621033 13.56604828 7.33493042 14.6525116 C8.17387672 16.88821083 9.00923361 19.12525972 9.84130859 21.36352539 C11.11707016 24.7911944 12.40727757 28.21316712 13.69921875 31.63476562 C14.511293 33.80435969 15.32251907 35.97427146 16.1328125 38.14453125 C16.52026642 39.17069046 16.90772034 40.19684967 17.30691528 41.25410461 C17.83779251 42.69030403 17.83779251 42.69030403 18.37939453 44.15551758 C18.69313019 44.99633377 19.00686584 45.83714996 19.33010864 46.70344543 C20 49 20 49 20 53 C7.13 53 -5.74 53 -19 53 C-18.27155112 49.3577556 -17.52157785 46.43830772 -16.23413086 43.02612305 C-15.87383286 42.06550461 -15.51353485 41.10488617 -15.14231873 40.11515808 C-14.75375198 39.0910231 -14.36518524 38.06688812 -13.96484375 37.01171875 C-13.56672989 35.95338333 -13.16861603 34.89504791 -12.75843811 33.80464172 C-11.48839143 30.43089195 -10.21301921 27.05918408 -8.9375 23.6875 C-8.07451781 21.39791909 -7.21188347 19.10820705 -6.34960938 16.81835938 C-4.23710404 11.21071266 -2.12022488 5.60473221 0 0 Z " fill="#E0DEDD" transform="translate(693,701)"/>
<path d="M0 0 C0.37669607 7.58972823 0.63124371 14.5411224 -4.37109375 20.68359375 C-10.28470213 26.37030108 -18.18650836 29.1560274 -26.3125 29.4375 C-31.78557332 29.17729049 -35.23922282 27.52909598 -39.375 23.9375 C-41.75706731 19.63145525 -41.75441288 15.81236008 -41 11 C-38.8103886 6.6207772 -35.43270945 4.65537601 -31.01953125 2.84765625 C-21.11657048 0.06765303 -10.22493509 -0.32983662 0 0 Z " fill="#E1DEDC" transform="translate(411,770)"/>
<path d="M0 0 C10.56 0 21.12 0 32 0 C32 48.18 32 96.36 32 146 C21.44 146 10.88 146 0 146 C0 97.82 0 49.64 0 0 Z M1 1 C1 48.19 1 95.38 1 144 C10.57 144 20.14 144 30 144 C30.33 96.81 30.66 49.62 31 1 C21.1 1 11.2 1 1 1 Z " fill="#A10705" transform="translate(569,669)"/>
<path d="M0 0 C0.66 0.99 1.32 1.98 2 3 C2.66 2.01 3.32 1.02 4 0 C4 7.26 4 14.52 4 22 C3.67 22 3.34 22 3 22 C2.97494385 22.76554199 2.9498877 23.53108398 2.92407227 24.31982422 C2.80696546 27.83833931 2.68476595 31.35666055 2.5625 34.875 C2.50352539 36.68097656 2.50352539 36.68097656 2.44335938 38.5234375 C2.20096477 45.38506942 1.80252553 52.18000999 1 59 C0.34 59 -0.32 59 -1 59 C-1.02518408 53.65128909 -1.04308238 48.30261453 -1.05493164 42.95385742 C-1.05988416 41.14362994 -1.06664799 39.33340627 -1.07543945 37.52319336 C-1.13472718 24.97860696 -0.79476809 12.52006148 0 0 Z " fill="#C81916" transform="translate(518,565)"/>
<path d="M0 0 C0.66 0 1.32 0 2 0 C2.25896429 19.81508399 1.54926427 39.52167275 0.60931396 59.30749512 C0.42394748 63.23734733 0.24552209 67.16751507 0.06640625 71.09765625 C-0.28250393 78.73208439 -0.63872806 86.36614574 -1 94 C-1.33 94 -1.66 94 -2 94 C-2.495 73.21 -2.495 73.21 -3 52 C-3.66 52 -4.32 52 -5 52 C-4.67 49.03 -4.34 46.06 -4 43 C-3.34 43 -2.68 43 -2 43 C-1.15613219 37.7896418 -0.80089199 32.71466724 -0.68359375 27.44140625 C-0.66281265 26.65225327 -0.64203156 25.86310028 -0.62062073 25.05003357 C-0.55576695 22.55426891 -0.49654195 20.05840822 -0.4375 17.5625 C-0.39425358 15.86001652 -0.35063744 14.15754238 -0.30664062 12.45507812 C-0.20015237 8.30348127 -0.09870853 4.15178882 0 0 Z " fill="#F1D3D2" transform="translate(501,564)"/>
<path d="M0 0 C0.66 0 1.32 0 2 0 C3.25282725 3.75848174 3.12381835 7.25490919 3.09765625 11.16796875 C3.0962413 11.96278152 3.09482635 12.7575943 3.09336853 13.57649231 C3.08777378 16.11353325 3.07522228 18.65048575 3.0625 21.1875 C3.05748432 22.90820185 3.05292153 24.62890508 3.04882812 26.34960938 C3.03780607 30.5664403 3.02054506 34.78320516 3 39 C2.34 38.67 1.68 38.34 1 38 C0.67 26.78 0.34 15.56 0 4 C0 22.15 0 40.3 0 59 C-0.33 59 -0.66 59 -1 59 C-1.77451344 47.18443645 -2.18646604 35.41281344 -2.18530273 23.5715332 C-2.18754447 21.01172512 -2.20596053 18.45231363 -2.22460938 15.89257812 C-2.22753488 14.25260561 -2.2295253 12.6126311 -2.23046875 10.97265625 C-2.23765427 10.21340347 -2.24483978 9.4541507 -2.25224304 8.67189026 C-2.23572419 4.90026598 -2.14584157 3.21876235 0 0 Z " fill="#F1E1E0" transform="translate(524,560)"/>
<path d="M0 0 C1.97944936 2.96917403 2.29350581 3.65702279 2.3125 7 C2.32925781 7.680625 2.34601563 8.36125 2.36328125 9.0625 C1.88023911 11.63872476 1.05888913 12.39864179 -1 14 C-3.30566406 14.30883789 -3.30566406 14.30883789 -6.015625 14.22265625 C-7.01303711 14.20243408 -8.01044922 14.18221191 -9.03808594 14.16137695 C-10.09801758 14.12874756 -11.15794922 14.09611816 -12.25 14.0625 C-29.028481 13.13211381 -29.028481 13.13211381 -44 19 C-47.25 18.6875 -47.25 18.6875 -50 18 C-44.2951427 12.2951427 -33.85835517 12.34323036 -26.25 11.8125 C-24.68088867 11.69189209 -24.68088867 11.69189209 -23.08007812 11.56884766 C-15.37373151 11.01005412 -7.72680009 10.75513662 0 11 C0 7.37 0 3.74 0 0 Z " fill="#B10F0E" transform="translate(411,743)"/>
<path d="M0 0 C0.99 0.495 0.99 0.495 2 1 C2.50317383 3.27124023 2.50317383 3.27124023 2.89453125 6.37109375 C3.6839263 12.0298424 4.65547184 17.61743905 5.76171875 23.22265625 C5.91778595 24.02295258 6.07385315 24.8232489 6.23464966 25.64779663 C6.88223061 28.96776989 7.53280185 32.28707274 8.19458008 35.60424805 C8.68295905 38.05895127 9.16066374 40.51553761 9.63671875 42.97265625 C9.78872238 43.72055923 9.94072601 44.46846222 10.09733582 45.23902893 C11.31958907 51.62147762 11.31958907 51.62147762 10 55 C7.52850993 49.04782808 6.30312832 43.56316892 5.5 37.1875 C4.35606638 28.85148573 2.66325273 20.98975819 0 13 C-0.06937062 10.77181559 -0.08457084 8.54165476 -0.0625 6.3125 C-0.05347656 5.13300781 -0.04445313 3.95351562 -0.03515625 2.73828125 C-0.02355469 1.83464844 -0.01195312 0.93101562 0 0 Z " fill="#F0DEDD" transform="translate(408,222)"/>
<path d="M0 0 C1.98 0.66 3.96 1.32 6 2 C2.98085723 5.21392618 -0.20340089 8.08971785 -3.625 10.875 C-4.38039063 11.49117188 -5.13578125 12.10734375 -5.9140625 12.7421875 C-6.60242188 13.15726562 -7.29078125 13.57234375 -8 14 C-8.99 13.67 -9.98 13.34 -11 13 C-10.34 10.03 -9.68 7.06 -9 4 C-4.545 3.01 -4.545 3.01 0 2 C0 1.34 0 0.68 0 0 Z " fill="#CC1815" transform="translate(761,427)"/>
<path d="M0 0 C8.71998605 1.83119707 17.37242358 3.7719995 26 6 C26 6.99 26 7.98 26 9 C21.38 9 16.76 9 12 9 C12 8.01 12 7.02 12 6 C10.6078125 5.5359375 10.6078125 5.5359375 9.1875 5.0625 C7.125 4.375 5.0625 3.6875 3 3 C3.37125 4.258125 3.7425 5.51625 4.125 6.8125 C4.7578125 8.95703125 4.7578125 8.95703125 5 11 C4.01 12.485 4.01 12.485 3 14 C2.01 9.38 1.02 4.76 0 0 Z " fill="#CB1815" transform="translate(266,326)"/>
<path d="M0 0 C0.66 0 1.32 0 2 0 C2.67408308 1.26691507 3.33900497 2.53870749 4 3.8125 C4.556875 4.87404297 4.556875 4.87404297 5.125 5.95703125 C6 8 6 8 6 11 C4.35 11 2.7 11 1 11 C0.67 12.32 0.34 13.64 0 15 C-0.66 15 -1.32 15 -2 15 C-2.33 15.99 -2.66 16.98 -3 18 C-3.33 17.01 -3.66 16.02 -4 15 C-4.66 15 -5.32 15 -6 15 C-4.40109514 9.80355921 -2.25861997 4.93387858 0 0 Z " fill="#C91613" transform="translate(511,153)"/>
<path d="M0 0 C1.23556641 0.01740234 1.23556641 0.01740234 2.49609375 0.03515625 C3.32238281 0.04417969 4.14867187 0.05320312 5 0.0625 C5.63808594 0.07410156 6.27617188 0.08570313 6.93359375 0.09765625 C6.93359375 0.75765625 6.93359375 1.41765625 6.93359375 2.09765625 C4.29359375 2.42765625 1.65359375 2.75765625 -1.06640625 3.09765625 C-0.36773438 3.15824219 0.3309375 3.21882812 1.05078125 3.28125 C1.96085938 3.36503906 2.8709375 3.44882812 3.80859375 3.53515625 C4.71351563 3.61636719 5.6184375 3.69757812 6.55078125 3.78125 C8.93359375 4.09765625 8.93359375 4.09765625 10.93359375 5.09765625 C12.4702824 5.32233456 14.01327429 5.5056243 15.55859375 5.66015625 C16.37585938 5.74394531 17.193125 5.82773437 18.03515625 5.9140625 C18.66164063 5.97464844 19.288125 6.03523437 19.93359375 6.09765625 C19.93359375 6.75765625 19.93359375 7.41765625 19.93359375 8.09765625 C6.1661864 6.6760218 -7.43238736 4.46325064 -21.06640625 2.09765625 C-21.06640625 1.76765625 -21.06640625 1.43765625 -21.06640625 1.09765625 C-19.77863281 1.10925781 -18.49085938 1.12085938 -17.1640625 1.1328125 C-15.48567853 1.14218895 -13.80729299 1.1512893 -12.12890625 1.16015625 C-11.27876953 1.16853516 -10.42863281 1.17691406 -9.55273438 1.18554688 C-8.74384766 1.18876953 -7.93496094 1.19199219 -7.1015625 1.1953125 C-6.35269775 1.20054932 -5.60383301 1.20578613 -4.83227539 1.21118164 C-2.54343318 1.064035 -2.39060455 0.11297753 0 0 Z " fill="#BB2624" transform="translate(567.06640625,560.90234375)"/>
<path d="M0 0 C0.33 0 0.66 0 1 0 C1.07654536 4.51617599 1.10228696 8.59085217 0 13 C0.66 13 1.32 13 2 13 C2 10.69 2 8.38 2 6 C2.33 6 2.66 6 3 6 C3 8.64 3 11.28 3 14 C7.29 14.33 11.58 14.66 16 15 C16 15.33 16 15.66 16 16 C14.33524314 16.34274406 12.66804677 16.67364302 11 17 C10.071875 17.185625 9.14375 17.37125 8.1875 17.5625 C5 18 5 18 -3 18 C-2.01 12.06 -1.02 6.12 0 0 Z " fill="#BF211F" transform="translate(381,561)"/>
<path d="M0 0 C0 0.33 0 0.66 0 1 C-1.65 1 -3.3 1 -5 1 C-5 1.66 -5 2.32 -5 3 C-7.27024968 3.08097324 -9.54132075 3.13917704 -11.8125 3.1875 C-13.70935547 3.23970703 -13.70935547 3.23970703 -15.64453125 3.29296875 C-19 3 -19 3 -20.94921875 1.48828125 C-21.29597656 0.99714844 -21.64273437 0.50601563 -22 0 C-14.78736852 -3.03689746 -7.21263148 -3.03689746 0 0 Z " fill="#E6D5D4" transform="translate(297,732)"/>
<path d="M0 0 C0.33 0 0.66 0 1 0 C1 7.26 1 14.52 1 22 C0.67 22 0.34 22 0 22 C-0.33 30.91 -0.66 39.82 -1 49 C-1.33 49 -1.66 49 -2 49 C-2.05064837 42.50385868 -2.0857117 36.00776815 -2.10986328 29.51147461 C-2.11993006 27.30084327 -2.13358448 25.09022528 -2.15087891 22.87963867 C-2.17509738 19.70488189 -2.18647627 16.53030094 -2.1953125 13.35546875 C-2.20563507 12.36475876 -2.21595764 11.37404877 -2.22659302 10.35331726 C-2.22674408 9.43258926 -2.22689514 8.51186127 -2.22705078 7.56323242 C-2.231492 6.7527092 -2.23593323 5.94218597 -2.24050903 5.10710144 C-2 3 -2 3 0 0 Z " fill="#D92523" transform="translate(521,565)"/>
<path d="M0 0 C3.39581516 -0.0291544 6.79159786 -0.04685068 10.1875 -0.0625 C11.14720703 -0.07087891 12.10691406 -0.07925781 13.09570312 -0.08789062 C14.02705078 -0.09111328 14.95839844 -0.09433594 15.91796875 -0.09765625 C17.19837036 -0.10551147 17.19837036 -0.10551147 18.50463867 -0.11352539 C21.09246747 0.00420677 23.47661953 0.42892956 26 1 C26 1.66 26 2.32 26 3 C17.42 3 8.84 3 0 3 C0 2.01 0 1.02 0 0 Z " fill="#E3E8E9" transform="translate(524,683)"/>
<path d="M0 0 C0.33 0.99 0.66 1.98 1 3 C2.32 3 3.64 3 5 3 C5 3.66 5 4.32 5 5 C-4.405 5.495 -4.405 5.495 -14 6 C-14.33 6.66 -14.66 7.32 -15 8 C-7.08 8 0.84 8 9 8 C9 8.33 9 8.66 9 9 C0.75 9 -7.5 9 -16 9 C-15.67 7.02 -15.34 5.04 -15 3 C-10.05 3 -5.1 3 0 3 C0 2.01 0 1.02 0 0 Z " fill="#BD2A28" transform="translate(320,734)"/>
<path d="M0 0 C0.33 0 0.66 0 1 0 C1 3.96 1 7.92 1 12 C1.66 12 2.32 12 3 12 C3 8.04 3 4.08 3 0 C3.66 0 4.32 0 5 0 C5 4.62 5 9.24 5 14 C5.66 14 6.32 14 7 14 C7 15.98 7 17.96 7 20 C6.34 20 5.68 20 5 20 C5 18.35 5 16.7 5 15 C4.34 15 3.68 15 3 15 C3 16.65 3 18.3 3 20 C-0.0103245 16.9896755 0.02180327 14.77096379 -0.09765625 10.546875 C-0.08605469 9.29390625 -0.07445312 8.0409375 -0.0625 6.75 C-0.05347656 5.48671875 -0.04445313 4.2234375 -0.03515625 2.921875 C-0.02355469 1.95765625 -0.01195312 0.9934375 0 0 Z " fill="#C31511" transform="translate(344,780)"/>
<path d="M0 0 C1.43859375 -0.00386719 1.43859375 -0.00386719 2.90625 -0.0078125 C5.5 0.125 5.5 0.125 8.5 1.125 C8.17 2.115 7.84 3.105 7.5 4.125 C6.36820312 4.18558594 5.23640625 4.24617187 4.0703125 4.30859375 C2.58852855 4.39299917 1.1067584 4.47764717 -0.375 4.5625 C-1.49455078 4.62147461 -1.49455078 4.62147461 -2.63671875 4.68164062 C-6.69986864 4.84073624 -6.69986864 4.84073624 -10.5 6.125 C-11.16 5.465 -11.82 4.805 -12.5 4.125 C-11.51 4.125 -10.52 4.125 -9.5 4.125 C-9.17 3.135 -8.84 2.145 -8.5 1.125 C-5.41493912 0.09664637 -3.2305728 -0.00868434 0 0 Z " fill="#E0D5D3" transform="translate(392.5,730.875)"/>
<path d="M0 0 C0.33 0 0.66 0 1 0 C1 3.96 1 7.92 1 12 C8.59 12 16.18 12 24 12 C24 12.33 24 12.66 24 13 C15.75 13 7.5 13 -1 13 C-1.33 10.69 -1.66 8.38 -2 6 C-6.455 8.97 -6.455 8.97 -11 12 C-11.33 11.34 -11.66 10.68 -12 10 C-11.38511719 9.61328125 -10.77023437 9.2265625 -10.13671875 8.828125 C-9.32847656 8.30734375 -8.52023437 7.7865625 -7.6875 7.25 C-6.88699219 6.73953125 -6.08648437 6.2290625 -5.26171875 5.703125 C-2.99614439 3.99709664 -1.6247744 2.2996807 0 0 Z " fill="#F8CDCD" transform="translate(412,803)"/>
<path d="M0 0 C1.09655844 3.28967533 0.90592971 4.66072146 0.25 8 C0.09015625 8.86625 -0.0696875 9.7325 -0.234375 10.625 C-1.07284298 13.2259619 -2.03132077 14.17831548 -4 16 C-4.72197162 18.60611077 -4.72197162 18.60611077 -5 21 C-5.66 21 -6.32 21 -7 21 C-6.67 22.65 -6.34 24.3 -6 26 C-6.66 26.33 -7.32 26.66 -8 27 C-8.83047008 28.85240164 -8.83047008 28.85240164 -9.5 31 C-10.21875 33.1875 -10.21875 33.1875 -11 35 C-11.99 35.495 -11.99 35.495 -13 36 C-10.95756163 27.62716018 -8.08328643 19.77716824 -4.8125 11.8125 C-4.34908203 10.66974609 -3.88566406 9.52699219 -3.40820312 8.34960938 C-2.27767952 5.56409244 -1.14154467 2.78101414 0 0 Z " fill="#B11715" transform="translate(654,719)"/>
<path d="M0 0 C0.495 1.485 0.495 1.485 1 3 C-1.97294782 8.83800641 -6.21039673 12.22099043 -12 15 C-11.67 15.99 -11.34 16.98 -11 18 C-11.50402344 17.83757813 -12.00804687 17.67515625 -12.52734375 17.5078125 C-15.89689865 16.8158028 -19.12512098 16.86827981 -22.5625 16.875 C-23.57086914 16.86919922 -23.57086914 16.86919922 -24.59960938 16.86328125 C-27.67499752 16.86938927 -30.06026313 17.02008771 -33 18 C-33 17.34 -33 16.68 -33 16 C-32.34 16 -31.68 16 -31 16 C-31 15.34 -31 14.68 -31 14 C-30.16597656 14.03480469 -29.33195312 14.06960938 -28.47265625 14.10546875 C-20.01810652 14.3088428 -13.43613621 13.76026253 -6.1875 9.25 C-3.4143449 6.3976119 -1.83172533 3.52776731 0 0 Z " fill="#B31614" transform="translate(523,781)"/>
<path d="M0 0 C8.58 0 17.16 0 26 0 C26.33 1.98 26.66 3.96 27 6 C26.34 5.67 25.68 5.34 25 5 C25 4.01 25 3.02 25 2 C17.41 2 9.82 2 2 2 C2.33 4.31 2.66 6.62 3 9 C1 6 1 6 0 0 Z " fill="#C12626" transform="translate(242,784)"/>
<path d="M0 0 C0.33 0 0.66 0 1 0 C1.88381517 4.33949062 2.75629039 8.68106221 3.6184082 13.02490234 C3.91316408 14.50176054 4.21098944 15.97800962 4.51196289 17.45361328 C4.94448739 19.57691538 5.36586159 21.70217602 5.78515625 23.828125 C6.17006226 25.7447998 6.17006226 25.7447998 6.56274414 27.70019531 C6.95019204 30.62411814 7.00919336 32.28086775 6 35 C3.81783405 29.55986641 2.27843714 24.40012724 1.3125 18.625 C1.18512451 17.88838135 1.05774902 17.1517627 0.92651367 16.39282227 C0.02276088 10.86908038 -0.26678921 5.60257345 0 0 Z " fill="#EDC6C5" transform="translate(419,278)"/>
<path d="M0 0 C1.25541557 3.76624671 0.37061958 5.37188934 -1 9 C-0.34 9.33 0.32 9.66 1 10 C0.54625 10.598125 0.0925 11.19625 -0.375 11.8125 C-1.63295913 13.50590652 -2.82984724 15.24477086 -4 17 C-3.67 16.67 -3.34 16.34 -3 16 C-2.34 16 -1.68 16 -1 16 C-1 17.32 -1 18.64 -1 20 C-1.66 20 -2.32 20 -3 20 C-3.33 20.99 -3.66 21.98 -4 23 C-4.66 22.67 -5.32 22.34 -6 22 C-6.33 22.99 -6.66 23.98 -7 25 C-7.66 25 -8.32 25 -9 25 C-4.06739061 7.77323539 -4.06739061 7.77323539 0 0 Z " fill="#B91B18" transform="translate(670,676)"/>
<path d="M0 0 C0.33 0 0.66 0 1 0 C1.33 2.64 1.66 5.28 2 8 C2.66 8 3.32 8 4 8 C4.1083667 10.7302389 4.18746694 13.45614543 4.25 16.1875 C4.28351563 16.95642578 4.31703125 17.72535156 4.3515625 18.51757812 C4.36445313 19.26845703 4.37734375 20.01933594 4.390625 20.79296875 C4.4220459 21.82200317 4.4220459 21.82200317 4.45410156 22.87182617 C4 25 4 25 0 30 C0 20.1 0 10.2 0 0 Z " fill="#DAC2C1" transform="translate(448,749)"/>
<path d="M0 0 C2.31 0.66 4.62 1.32 7 2 C5.68 2.33 4.36 2.66 3 3 C3 3.66 3 4.32 3 5 C5.97 5 8.94 5 12 5 C12 5.66 12 6.32 12 7 C10.54176788 7.0270043 9.08339325 7.04639787 7.625 7.0625 C6.81289063 7.07410156 6.00078125 7.08570313 5.1640625 7.09765625 C3 7 3 7 1 6 C-1.59248672 5.72824182 -4.18448511 5.55427432 -6.78515625 5.37890625 C-7.51605469 5.25386719 -8.24695313 5.12882813 -9 5 C-9.33 4.34 -9.66 3.68 -10 3 C-7.03 3 -4.06 3 -1 3 C-0.67 2.01 -0.34 1.02 0 0 Z " fill="#D90E0A" transform="translate(575,560)"/>
<path d="M0 0 C0.99 0.33 1.98 0.66 3 1 C3.94921875 3.72265625 3.94921875 3.72265625 4.6875 7.0625 C5.06455078 8.71958984 5.06455078 8.71958984 5.44921875 10.41015625 C5.63097656 11.26480469 5.81273437 12.11945313 6 13 C5.01 13.33 4.02 13.66 3 14 C2.67 12.35 2.34 10.7 2 9 C1.34 9 0.68 9 0 9 C0 8.01 0 7.02 0 6 C-1.98 6.66 -3.96 7.32 -6 8 C-4.02 5.36 -2.04 2.72 0 0 Z " fill="#C61C1A" transform="translate(663,303)"/>
<path d="M0 0 C1.125 3.75 1.125 3.75 0 6 C-1.32 6 -2.64 6 -4 6 C-4 6.66 -4 7.32 -4 8 C-6.31 8 -8.62 8 -11 8 C-11 7.34 -11 6.68 -11 6 C-9.02 6 -7.04 6 -5 6 C-5 5.34 -5 4.68 -5 4 C-6.918125 4.061875 -6.918125 4.061875 -8.875 4.125 C-11.0546875 4.1953125 -11.0546875 4.1953125 -13 4 C-13.66 3.34 -14.32 2.68 -15 2 C-14.22914063 1.93941406 -13.45828125 1.87882813 -12.6640625 1.81640625 C-11.15972656 1.69072266 -11.15972656 1.69072266 -9.625 1.5625 C-8.62726563 1.48128906 -7.62953125 1.40007812 -6.6015625 1.31640625 C-4.12756995 1.01551526 -2.44698344 0 0 0 Z " fill="#BF1C1A" transform="translate(464,247)"/>
<path d="M0 0 C8.91 0 17.82 0 27 0 C27 0.33 27 0.66 27 1 C25.046875 1.22786458 23.09375 1.45572917 21.140625 1.68359375 C19.03467875 1.94458999 19.03467875 1.94458999 17.1875 2.53125 C14.02846271 3.20818656 10.97519995 3.09236296 7.75 3.0625 C6.48671875 3.05347656 5.2234375 3.04445313 3.921875 3.03515625 C2.95765625 3.02355469 1.9934375 3.01195312 1 3 C0.67 2.01 0.34 1.02 0 0 Z " fill="#E3E7E6" transform="translate(498,676)"/>
<path d="M0 0 C3.16115776 1.36983503 3.9927092 1.9890638 6 5 C4 5 2 5 0 5 C-0.12469099 10.57830016 -0.12469099 10.57830016 1 16 C0.01 16 -0.98 16 -2 16 C-3.71711243 18.44496043 -3.71711243 18.44496043 -5 21 C-6.33201473 18.33597054 -5.69751146 17.4413616 -4.78515625 14.6484375 C-4.51123047 13.79765625 -4.23730469 12.946875 -3.95507812 12.0703125 C-3.66052734 11.18085938 -3.36597656 10.29140625 -3.0625 9.375 C-2.77181641 8.4778125 -2.48113281 7.580625 -2.18164062 6.65625 C-1.46100166 4.43526435 -0.73354395 2.21675021 0 0 Z " fill="#BF1A18" transform="translate(358,303)"/>
<path d="M0 0 C0.33 0 0.66 0 1 0 C1.06058594 1.0621875 1.12117188 2.124375 1.18359375 3.21875 C1.79270238 13.63715103 1.79270238 13.63715103 3 24 C2.01 24.66 1.02 25.32 0 26 C-0.33 25.34 -0.66 24.68 -1 24 C-0.34 24 0.32 24 1 24 C0.67 22.35 0.34 20.7 0 19 C-0.99 19.33 -1.98 19.66 -3 20 C-3.33 17.69 -3.66 15.38 -4 13 C-3.34 13 -2.68 13 -2 13 C-1.34 8.71 -0.68 4.42 0 0 Z " fill="#B71411" transform="translate(476,758)"/>
<path d="M0 0 C-0.32432407 3.06382739 -0.98901487 3.98970965 -3.28515625 6.140625 C-4.65994141 7.18476563 -4.65994141 7.18476563 -6.0625 8.25 C-6.98160156 8.95640625 -7.90070312 9.6628125 -8.84765625 10.390625 C-9.91306641 11.18726563 -9.91306641 11.18726563 -11 12 C-11.33 10.68 -11.66 9.36 -12 8 C-11.34 8 -10.68 8 -10 8 C-10 6.68 -10 5.36 -10 4 C-9.34 4 -8.68 4 -8 4 C-8.33 3.01 -8.66 2.02 -9 1 C-2.25 0 -2.25 0 0 0 Z " fill="#CB1814" transform="translate(680,495)"/>
<path d="M0 0 C2 3 2 3 2 7 C1.01 7.33 0.02 7.66 -1 8 C-2.24498609 10.32269959 -2.24498609 10.32269959 -3.1875 13.0625 C-3.53167969 13.98160156 -3.87585938 14.90070313 -4.23046875 15.84765625 C-4.48441406 16.55792969 -4.73835938 17.26820313 -5 18 C-5.66 18 -6.32 18 -7 18 C-7.28875 18.9075 -7.5775 19.815 -7.875 20.75 C-8.76531776 23.32202908 -9.71494413 25.61346766 -11 28 C-11.66 27.67 -12.32 27.34 -13 27 C-6.565 13.635 -6.565 13.635 0 0 Z " fill="#B81C1B" transform="translate(494,190)"/>
<path d="M0 0 C0 0.33 0 0.66 0 1 C-5.93201254 2.45869161 -11.61960867 3.33384082 -17.71484375 3.75390625 C-20.02791486 3.8685935 -20.02791486 3.8685935 -22 5 C-23.54023996 5.06950541 -25.08334988 5.08452357 -26.625 5.0625 C-27.85089844 5.04896484 -27.85089844 5.04896484 -29.1015625 5.03515625 C-30.04128906 5.01775391 -30.04128906 5.01775391 -31 5 C-31 4.34 -31 3.68 -31 3 C-27.7 3 -24.4 3 -21 3 C-21 2.34 -21 1.68 -21 1 C-13.97360585 0.25194283 -7.06608191 -0.13794954 0 0 Z " fill="#DC0A06" transform="translate(482,560)"/>
<path d="M0 0 C0.66 0.33 1.32 0.66 2 1 C2.33 2.65 2.66 4.3 3 6 C-4.59 6 -12.18 6 -20 6 C-19.67 5.34 -19.34 4.68 -19 4 C-12.73 4 -6.46 4 0 4 C0 2.68 0 1.36 0 0 Z " fill="#DA0D0B" transform="translate(325,735)"/>
<path d="M0 0 C8.91 0 17.82 0 27 0 C27 0.66 27 1.32 27 2 C28.98 2.66 30.96 3.32 33 4 C29.77208445 6.1519437 28.71599191 6.20086443 25 6 C25.99 5.67 26.98 5.34 28 5 C28 4.34 28 3.68 28 3 C21.64492992 2.23687857 15.32991385 1.74001144 8.9375 1.4375 C8.07189453 1.39431641 7.20628906 1.35113281 6.31445312 1.30664062 C4.20975532 1.20198714 2.10489349 1.10064089 0 1 C0 0.67 0 0.34 0 0 Z " fill="#DB140F" transform="translate(277,714)"/>
<path d="M0 0 C0.33 0 0.66 0 1 0 C1 2.31 1 4.62 1 7 C5.95 7.33 10.9 7.66 16 8 C16.33 7.34 16.66 6.68 17 6 C17.33 6.99 17.66 7.98 18 9 C17 10 17 10 13.18359375 10.09765625 C11.60153318 10.09098089 10.01948841 10.07901875 8.4375 10.0625 C7.63119141 10.05798828 6.82488281 10.05347656 5.99414062 10.04882812 C3.99606244 10.03700518 1.99802217 10.01906914 0 10 C0 6.7 0 3.4 0 0 Z " fill="#CC0807" transform="translate(528,804)"/>
<path d="M0 0 C3 2 3 2 4 5 C4.12781786 7.67394964 4.04391871 10.32095857 4 13 C4.66 13 5.32 13 6 13 C5.37063561 15.93703384 4.37579827 18.33788628 3 21 C2.49432271 18.43850372 1.99529868 15.87600535 1.5 13.3125 C1.35691406 12.59126953 1.21382813 11.87003906 1.06640625 11.12695312 C0.34428113 7.36158641 -0.1824976 3.85526187 0 0 Z " fill="#C40D0B" transform="translate(421,283)"/>
<path d="M0 0 C1.32 0.66 2.64 1.32 4 2 C3.67 4.64 3.34 7.28 3 10 C2.34 9.67 1.68 9.34 1 9 C0.67 15.6 0.34 22.2 0 29 C-0.33 29 -0.66 29 -1 29 C-1.02911003 25.10418244 -1.04683587 21.208393 -1.0625 17.3125 C-1.07087891 16.20970703 -1.07925781 15.10691406 -1.08789062 13.97070312 C-1.09111328 12.90400391 -1.09433594 11.83730469 -1.09765625 10.73828125 C-1.10289307 9.75899658 -1.10812988 8.77971191 -1.11352539 7.77075195 C-1.00308543 5.07530428 -0.60534166 2.62454361 0 0 Z " fill="#EABCBB" transform="translate(524,614)"/>
<path d="M0 0 C0.33 0.99 0.66 1.98 1 3 C1.66 3.33 2.32 3.66 3 4 C2.01 5.485 2.01 5.485 1 7 C1 7.99 1 8.98 1 10 C-0.32 10 -1.64 10 -3 10 C-3.66 11.98 -4.32 13.96 -5 16 C-5.66 16 -6.32 16 -7 16 C-5.35433477 10.31497465 -2.70967216 5.23318364 0 0 Z " fill="#C21D1B" transform="translate(504,169)"/>
<path d="M0 0 C-3.20406462 2.13604308 -3.99600747 2.24208908 -7.66796875 2.1953125 C-8.56064453 2.18886719 -9.45332031 2.18242188 -10.37304688 2.17578125 C-11.76620117 2.15064453 -11.76620117 2.15064453 -13.1875 2.125 C-14.12787109 2.11597656 -15.06824219 2.10695313 -16.03710938 2.09765625 C-18.35832968 2.07409056 -20.67903644 2.04119116 -23 2 C-23.33 1.34 -23.66 0.68 -24 0 C-15.85315786 -0.6976874 -8.11696631 -1.28162626 0 0 Z " fill="#B60F0D" transform="translate(508,815)"/>
<path d="M0 0 C0.66 0 1.32 0 2 0 C2.05449838 1.72880982 2.09301688 3.45812712 2.125 5.1875 C2.14820313 6.15042969 2.17140625 7.11335937 2.1953125 8.10546875 C1.9913544 11.12812778 1.26874632 13.26769985 0 16 C-2 14 -2 14 -2.265625 11.9765625 C-2.26046875 11.20054687 -2.2553125 10.42453125 -2.25 9.625 C-2.25515625 8.85414063 -2.2603125 8.08328125 -2.265625 7.2890625 C-1.97635696 4.7962526 -1.20890143 3.17794146 0 1 C0 0.67 0 0.34 0 0 Z " fill="#E6E2E3" transform="translate(409,770)"/>
<path d="M0 0 C0.99 0.33 1.98 0.66 3 1 C4.20057976 3.69035026 5.22808495 6.28848759 6.1875 9.0625 C6.46013672 9.82111328 6.73277344 10.57972656 7.01367188 11.36132812 C7.68615396 13.2371992 8.34442951 15.11815203 9 17 C7.68 17.99 6.36 18.98 5 20 C4.34 18.68 3.68 17.36 3 16 C3.99 16 4.98 16 6 16 C4.68 12.37 3.36 8.74 2 5 C1.34 5 0.68 5 0 5 C0 3.35 0 1.7 0 0 Z " fill="#C1201E" transform="translate(725,700)"/>
<path d="M0 0 C1.65 0 3.3 0 5 0 C5 0.99 5 1.98 5 3 C3.06640625 4.82421875 3.06640625 4.82421875 0.5625 6.6875 C-0.26121094 7.31011719 -1.08492187 7.93273437 -1.93359375 8.57421875 C-4 10 -4 10 -5 10 C-5.36625971 5.48279689 -5.36625971 5.48279689 -3.625 3.1875 C-2 2 -2 2 0 2 C0 1.34 0 0.68 0 0 Z " fill="#CC1B18" transform="translate(734,449)"/>
<path d="M0 0 C0 0.66 0 1.32 0 2 C-1.55460937 2.16435547 -1.55460937 2.16435547 -3.140625 2.33203125 C-4.51049264 2.49153639 -5.88028037 2.65172884 -7.25 2.8125 C-7.93191406 2.88275391 -8.61382812 2.95300781 -9.31640625 3.02539062 C-13.46126407 3.52840735 -15.80084961 4.38251332 -19 7 C-22.25 6.6875 -22.25 6.6875 -25 6 C-19.13815229 0.13815229 -7.87453468 0 0 0 Z " fill="#B31A18" transform="translate(386,755)"/>
<path d="M0 0 C2.70153507 4.0523026 4.09406063 8.21907624 5 13 C4.1875 16.125 4.1875 16.125 3 18 C2.34 18 1.68 18 1 18 C0.22959149 11.93303301 -0.09706112 6.11485027 0 0 Z " fill="#C02522" transform="translate(720,681)"/>
<path d="M0 0 C2 3 2 3 1.625 5.1875 C1.41875 5.785625 1.2125 6.38375 1 7 C1.66 7.33 2.32 7.66 3 8 C2.34 9.65 1.68 11.3 1 13 C0.01 13 -0.98 13 -2 13 C-2.66 13.66 -3.32 14.32 -4 15 C-3.43179252 9.54520815 -2.05362055 5.08940744 0 0 Z " fill="#BB1A19" transform="translate(629,784)"/>
<path d="M0 0 C8.60791872 0.30524534 15.95691869 1.93393177 24 5 C18.56787499 6.81070834 13.90898504 5.45449252 9 3 C7.989375 3.020625 6.97875 3.04125 5.9375 3.0625 C3 3 3 3 1.31640625 1.49609375 C0.88199219 1.00238281 0.44757813 0.50867188 0 0 Z " fill="#B2120F" transform="translate(292,754)"/>
<path d="M0 0 C0.66 0.66 1.32 1.32 2 2 C2.66 1.34 3.32 0.68 4 0 C3.00956295 4.83628305 2.04301154 9.47618873 0 14 C-1.0326802 11.21176345 -1.04509293 10.1322726 -0.0625 7.25 C0.288125 6.5075 0.63875 5.765 1 5 C0.34 5 -0.32 5 -1 5 C-1 6.32 -1 7.64 -1 9 C-1.66 9 -2.32 9 -3 9 C-3 7.02 -3 5.04 -3 3 C-2.34 3 -1.68 3 -1 3 C-0.67 2.01 -0.34 1.02 0 0 Z " fill="#EDE0DF" transform="translate(644,733)"/>
<path d="M0 0 C0.33 0 0.66 0 1 0 C1.70147833 3.41395062 2.38372236 6.83146969 3.0625 10.25 C3.26166016 11.21808594 3.46082031 12.18617188 3.66601562 13.18359375 C3.84970703 14.11816406 4.03339844 15.05273438 4.22265625 16.015625 C4.39547119 16.87446289 4.56828613 17.73330078 4.74633789 18.61816406 C5.00554788 21.05209351 4.75084609 22.68898463 4 25 C0.10077503 17.03201855 0.28688165 8.70537429 0 0 Z " fill="#ECCBCC" transform="translate(414,252)"/>
<path d="M0 0 C0.33 0.66 0.66 1.32 1 2 C1.66 2 2.32 2 3 2 C3 3.98 3 5.96 3 8 C2.01 8.495 2.01 8.495 1 9 C0.67 8.01 0.34 7.02 0 6 C-0.66 9.96 -1.32 13.92 -2 18 C-2.33 18 -2.66 18 -3 18 C-3.33278764 11.18401613 -3.24201565 6.07877934 0 0 Z " fill="#B51C1A" transform="translate(248,730)"/>
<path d="M0 0 C0.78375 0.33 1.5675 0.66 2.375 1 C4.84332497 2.11866511 4.84332497 2.11866511 7 2 C7.99 2 8.98 2 10 2 C10.2475 2.9075 10.495 3.815 10.75 4.75 C12.03981342 8.10351489 13.31971042 9.67708236 16 12 C11.66923089 10.55113209 8.68128855 8.351329 5.1875 5.4375 C4.21167969 4.63183594 3.23585938 3.82617188 2.23046875 2.99609375 C1.49441406 2.33738281 0.75835937 1.67867188 0 1 C0 0.67 0 0.34 0 0 Z " fill="#C11816" transform="translate(265,435)"/>
<path d="M0 0 C6.27 0 12.54 0 19 0 C19 0.66 19 1.32 19 2 C15.17189179 3.27603607 11.76524893 2.86283987 7.8125 2.5625 C7.06291016 2.51029297 6.31332031 2.45808594 5.54101562 2.40429688 C3.69362918 2.27486216 1.84675629 2.13813482 0 2 C0 1.34 0 0.68 0 0 Z " fill="#D50E0A" transform="translate(493,731)"/>
<path d="M0 0 C3.4599577 2.67360368 4.06972239 5.84953067 5 10 C5.125 12.9375 5.125 12.9375 5 15 C2.36 15 -0.28 15 -3 15 C0.75 12 0.75 12 3 12 C2.7834375 11.38511719 2.566875 10.77023437 2.34375 10.13671875 C2.0653125 9.32847656 1.786875 8.52023437 1.5 7.6875 C1.2215625 6.88699219 0.943125 6.08648438 0.65625 5.26171875 C0 3 0 3 0 0 Z " fill="#BF0C0A" transform="translate(763,799)"/>
<path d="M0 0 C0 0.66 0 1.32 0 2 C-0.99 2 -1.98 2 -3 2 C-3.061875 2.61875 -3.12375 3.2375 -3.1875 3.875 C-3.455625 4.57625 -3.72375 5.2775 -4 6 C-5.65204456 6.70211894 -7.31923769 7.36971413 -9 8 C-9.33 8.99 -9.66 9.98 -10 11 C-10.99 11.33 -11.98 11.66 -13 12 C-11.60991124 6.74855359 -8.1957125 4.12699328 -4 1 C-2 0 -2 0 0 0 Z " fill="#C11716" transform="translate(366,719)"/>
<path d="M0 0 C1.25127906 3.54667178 0.72285053 5.72253438 -0.4375 9.25 C-0.72496094 10.14203125 -1.01242187 11.0340625 -1.30859375 11.953125 C-1.53675781 12.62859375 -1.76492188 13.3040625 -2 14 C-2.5534764 11.92446352 -3 10.15634036 -3 8 C-3.66 8 -4.32 8 -5 8 C-5 5.69 -5 3.38 -5 1 C-3.35 0.67 -1.7 0.34 0 0 Z " fill="#BB1311" transform="translate(742,378)"/>
<path d="M0 0 C0.33 0.66 0.66 1.32 1 2 C1.66 2 2.32 2 3 2 C3 1.34 3 0.68 3 0 C3.66 0 4.32 0 5 0 C5 0.99 5 1.98 5 3 C4.34 3 3.68 3 3 3 C3.0825 3.9075 3.165 4.815 3.25 5.75 C3 9 3 9 1 11.375 C0.34 11.91125 -0.32 12.4475 -1 13 C-0.41196203 9.97580475 0.22678118 6.98241547 1 4 C0.34 4 -0.32 4 -1 4 C-0.67 2.68 -0.34 1.36 0 0 Z " fill="#C31614" transform="translate(458,735)"/>
<path d="M0 0 C0.75 1.875 0.75 1.875 1 4 C0.01 5.485 0.01 5.485 -1 7 C-1.33 6.01 -1.66 5.02 -2 4 C-2.66 4 -3.32 4 -4 4 C-4 3.34 -4 2.68 -4 2 C-6.31 2 -8.62 2 -11 2 C-11 1.34 -11 0.68 -11 0 C-9.54263913 -0.19491452 -8.08405407 -0.38069358 -6.625 -0.5625 C-5.81289063 -0.66691406 -5.00078125 -0.77132812 -4.1640625 -0.87890625 C-2 -1 -2 -1 0 0 Z " fill="#C71510" transform="translate(373,737)"/>
<path d="M0 0 C1.4540625 0.0309375 1.4540625 0.0309375 2.9375 0.0625 C2.8125 1.8125 2.8125 1.8125 1.9375 4.0625 C-1.125 6.3125 -1.125 6.3125 -4.0625 8.0625 C-4.10491723 5.72955225 -4.10342937 3.39547433 -4.0625 1.0625 C-3.0625 0.0625 -3.0625 0.0625 0 0 Z " fill="#CB1916" transform="translate(652.0625,514.9375)"/>
<path d="M0 0 C-0.66 1.32 -1.32 2.64 -2 4 C-2 3.01 -2 2.02 -2 1 C-2.66 1 -3.32 1 -4 1 C-3.67 1.99 -3.34 2.98 -3 4 C-5.97 3.67 -8.94 3.34 -12 3 C-11 1 -11 1 -8.25 -0.1875 C-4.95578208 -1.01105448 -3.20978295 -0.94405381 0 0 Z " fill="#C32322" transform="translate(378,716)"/>
<path d="M0 0 C2.54384726 1.27192363 2.69368156 2.19948469 3.6875 4.8125 C3.95949219 5.49957031 4.23148438 6.18664062 4.51171875 6.89453125 C5 9 5 9 4 13 C3.01 10.36 2.02 7.72 1 5 C0.01 7.31 -0.98 9.62 -2 12 C-3.12377697 8.69564916 -2.89554742 6.9493138 -1.5625 3.75 C-1.27503906 3.04359375 -0.98757813 2.3371875 -0.69140625 1.609375 C-0.46324219 1.07828125 -0.23507812 0.5471875 0 0 Z " fill="#F4DFDE" transform="translate(693,701)"/>
<path d="M0 0 C0.33 0.66 0.66 1.32 1 2 C1.99 2 2.98 2 4 2 C4 2.66 4 3.32 4 4 C1 6 1 6 -1.5625 5.6875 C-4 5 -4 5 -6 4 C-6 3.34 -6 2.68 -6 2 C-3 0 -3 0 0 0 Z " fill="#E8D9D8" transform="translate(753,417)"/>
<path d="M0 0 C1.32 0.99 2.64 1.98 4 3 C3.34 6.96 2.68 10.92 2 15 C-0.24003366 10.51993267 -1.46297719 6.57944432 -0.5625 1.5625 C-0.376875 1.046875 -0.19125 0.53125 0 0 Z " fill="#CE2220" transform="translate(275,350)"/>
<path d="M0 0 C0.99 0 1.98 0 3 0 C3 0.66 3 1.32 3 2 C7.95 2 12.9 2 18 2 C18 2.33 18 2.66 18 3 C16.96359375 3.13277344 15.9271875 3.26554688 14.859375 3.40234375 C13.48956735 3.58060639 12.11977656 3.75899862 10.75 3.9375 C10.06808594 4.02451172 9.38617188 4.11152344 8.68359375 4.20117188 C5.39963389 4.6315938 2.18809706 5.08794131 -1 6 C-0.67 4.02 -0.34 2.04 0 0 Z " fill="#B30A09" transform="translate(274,727)"/>
<path d="M0 0 C0.99 0 1.98 0 3 0 C3 0.66 3 1.32 3 2 C5.97 2 8.94 2 12 2 C12 2.33 12 2.66 12 3 C10.04396149 3.52938657 8.08507711 4.04826801 6.125 4.5625 C5.03445313 4.85253906 3.94390625 5.14257812 2.8203125 5.44140625 C0 6 0 6 -2 5 C-2 4.01 -2 3.02 -2 2 C-1.34 2 -0.68 2 0 2 C0 1.34 0 0.68 0 0 Z " fill="#BD1714" transform="translate(376,769)"/>
<path d="M0 0 C0.33 0.99 0.66 1.98 1 3 C1.99 3 2.98 3 4 3 C3.67 4.65 3.34 6.3 3 8 C3.66 8 4.32 8 5 8 C5.33 7.01 5.66 6.02 6 5 C6.6875 7.3125 6.6875 7.3125 7 10 C5.5625 11.8125 5.5625 11.8125 4 13 C0.88303339 8.66335081 0.44033187 5.19591612 0 0 Z " fill="#BD1511" transform="translate(736,734)"/>
<path d="M0 0 C0.33 0 0.66 0 1 0 C1 5.94 1 11.88 1 18 C-2.00764653 11.98470695 -2.29248194 7.59165792 -1 1 C-0.67 0.67 -0.34 0.34 0 0 Z " fill="#E6EAEA" transform="translate(244,732)"/>
<path d="M0 0 C2.08432499 3.12648749 3.28558611 6.05730868 4.625 9.5625 C5.07101562 10.71878906 5.51703125 11.87507812 5.9765625 13.06640625 C7 16 7 16 7 18 C6.01 17.67 5.02 17.34 4 17 C3.26953125 14.93359375 3.26953125 14.93359375 2.8125 12.4375 C2.65394531 11.61121094 2.49539063 10.78492188 2.33203125 9.93359375 C2.16767578 8.97646484 2.16767578 8.97646484 2 8 C1.34 8 0.68 8 0 8 C0 5.36 0 2.72 0 0 Z " fill="#EDD9D7" transform="translate(698,712)"/>
<path d="M0 0 C4.05214179 1.74522938 7.30603961 4.4228157 10.75 7.125 C11.35199219 7.59292969 11.95398438 8.06085938 12.57421875 8.54296875 C14.05186616 9.69225007 15.52626005 10.84571235 17 12 C16.01 12.495 16.01 12.495 15 13 C13.3278148 11.88321917 11.66237197 10.75633648 10 9.625 C9.071875 8.99851562 8.14375 8.37203125 7.1875 7.7265625 C6.1046875 6.87191406 6.1046875 6.87191406 5 6 C5 5.34 5 4.68 5 4 C2.525 3.01 2.525 3.01 0 2 C0 1.34 0 0.68 0 0 Z " fill="#EEDAD8" transform="translate(345,499)"/>
<path d="M0 0 C4.95 0.33 9.9 0.66 15 1 C11.71508627 3.18994248 10.16904361 3.35277339 6.3125 3.625 C4.82169922 3.73714844 4.82169922 3.73714844 3.30078125 3.8515625 C2.16189453 3.92503906 2.16189453 3.92503906 1 4 C1.33 3.01 1.66 2.02 2 1 C1.34 0.67 0.68 0.34 0 0 Z " fill="#D50E0B" transform="translate(377,768)"/>
<path d="M0 0 C1.43410153 3.78819273 0.51009497 6.06521279 -0.9375 9.75 C-1.31777344 10.73484375 -1.69804688 11.7196875 -2.08984375 12.734375 C-2.39019531 13.48203125 -2.69054687 14.2296875 -3 15 C-3.66 15 -4.32 15 -5 15 C-4.34 11.04 -3.68 7.08 -3 3 C-2.01 2.67 -1.02 2.34 0 2 C0 1.34 0 0.68 0 0 Z " fill="#ECE1DF" transform="translate(654,714)"/>
<path d="M0 0 C1.32 0 2.64 0 4 0 C3.95875 0.969375 3.9175 1.93875 3.875 2.9375 C3.85651067 7.44889724 4.89482578 11.64837652 6 16 C3.63224279 13.63224279 3.00103504 11.70288662 1.875 8.5625 C1.52179687 7.59441406 1.16859375 6.62632812 0.8046875 5.62890625 C0 3 0 3 0 0 Z " fill="#B31312" transform="translate(697,707)"/>
<path d="M0 0 C0.33 0 0.66 0 1 0 C1.22278071 2.56197812 1.42862563 5.12347556 1.625 7.6875 C1.72167969 8.7693457 1.72167969 8.7693457 1.8203125 9.87304688 C2.13102342 14.12590254 1.97020088 17.18743571 0 21 C-1.97636787 14.17682521 -1.20194795 6.91120071 0 0 Z " fill="#C52322" transform="translate(386,535)"/>
<path d="M0 0 C0.33 0.99 0.66 1.98 1 3 C1.66 3 2.32 3 3 3 C2.67 5.31 2.34 7.62 2 10 C1.34 9.01 0.68 8.02 0 7 C-0.33 8.65 -0.66 10.3 -1 12 C-1.66 11.67 -2.32 11.34 -3 11 C-2.32829194 7.1936543 -1.27253436 3.64793184 0 0 Z " fill="#C41513" transform="translate(744,361)"/>
<path d="M0 0 C2.64 0 5.28 0 8 0 C8 0.66 8 1.32 8 2 C6.02 2 4.04 2 2 2 C2 2.66 2 3.32 2 4 C3.98 4 5.96 4 8 4 C8 4.33 8 4.66 8 5 C0.57142857 5.28571429 0.57142857 5.28571429 -3 3 C-2.01 2.67 -1.02 2.34 0 2 C0 1.34 0 0.68 0 0 Z " fill="#DB0F0A" transform="translate(451,251)"/>
<path d="M0 0 C0.33 0 0.66 0 1 0 C0.51358785 6.84817102 -0.35993952 13.33042073 -2 20 C-2.33 20 -2.66 20 -3 20 C-3.02688151 18.35425434 -3.04634123 16.70838587 -3.0625 15.0625 C-3.07410156 14.14597656 -3.08570313 13.22945312 -3.09765625 12.28515625 C-3 10 -3 10 -2 9 C-1.60851239 7.48834346 -1.26027543 5.96530368 -0.9375 4.4375 C-0.76089844 3.61121094 -0.58429687 2.78492188 -0.40234375 1.93359375 C-0.26957031 1.29550781 -0.13679687 0.65742188 0 0 Z " fill="#E3110F" transform="translate(612,224)"/>
<path d="M0 0 C3.77727089 1.81309003 7.37269822 3.9073259 11 6 C10.01 6.33 9.02 6.66 8 7 C7.67 6.67 7.34 6.34 7 6 C6.67 6.66 6.34 7.32 6 8 C5.34 8 4.68 8 4 8 C3.67 6.68 3.34 5.36 3 4 C2.34 4.99 1.68 5.98 1 7 C0.67 4.69 0.34 2.38 0 0 Z " fill="#B21918" transform="translate(409,223)"/>
<path d="M0 0 C1.15837573 3.47512718 0.77265943 5.13670286 0.0625 8.6875 C-0.13214844 9.68136719 -0.32679688 10.67523438 -0.52734375 11.69921875 C-0.68332031 12.45847656 -0.83929687 13.21773438 -1 14 C-1.66 14 -2.32 14 -3 14 C-3.34615998 8.34605369 -2.43425238 4.96993194 0 0 Z " fill="#E8E4E3" transform="translate(744,379)"/>
<path d="M0 0 C3.63 0.66 7.26 1.32 11 2 C11 2.33 11 2.66 11 3 C8.36 3 5.72 3 3 3 C3.37125 4.258125 3.7425 5.51625 4.125 6.8125 C4.7578125 8.95703125 4.7578125 8.95703125 5 11 C4.01 12.485 4.01 12.485 3 14 C2.01 9.38 1.02 4.76 0 0 Z " fill="#BA2220" transform="translate(266,326)"/>
<path d="M0 0 C-0.66 2.97 -1.32 5.94 -2 9 C-2.33 9 -2.66 9 -3 9 C-3.33 7.35 -3.66 5.7 -4 4 C-6.31 3.67 -8.62 3.34 -11 3 C-7.25667087 0.99464511 -4.26323685 0 0 0 Z " fill="#BB211F" transform="translate(758,326)"/>
<path d="M0 0 C2.18697502 2.79624958 3.99152813 5.63307872 5.6875 8.75 C6.12449219 9.54921875 6.56148437 10.3484375 7.01171875 11.171875 C7.33785156 11.77515625 7.66398438 12.3784375 8 13 C4.125 11.25 4.125 11.25 3 9 C0.97536745 8.34786708 0.97536745 8.34786708 -1 8 C-1 7.34 -1 6.68 -1 6 C-0.34 6 0.32 6 1 6 C0.67 4.02 0.34 2.04 0 0 Z " fill="#BE221F" transform="translate(548,229)"/>
<path d="M0 0 C0.33 0 0.66 0 1 0 C1 3.96 1 7.92 1 12 C1.66 12 2.32 12 3 12 C4.09658936 15.28976808 3.79953138 16.71303767 3 20 C-0.0103245 16.9896755 0.02180327 14.77096379 -0.09765625 10.546875 C-0.08605469 9.29390625 -0.07445312 8.0409375 -0.0625 6.75 C-0.05347656 5.48671875 -0.04445313 4.2234375 -0.03515625 2.921875 C-0.02355469 1.95765625 -0.01195312 0.9934375 0 0 Z " fill="#B82522" transform="translate(344,780)"/>
<path d="M0 0 C2.35953094 2.35953094 2.49141413 3.77895617 3 7 C4.32 7.33 5.64 7.66 7 8 C6.67 10.64 6.34 13.28 6 16 C3.63224279 13.63224279 3.00103504 11.70288662 1.875 8.5625 C1.52179687 7.59441406 1.16859375 6.62632812 0.8046875 5.62890625 C0 3 0 3 0 0 Z " fill="#EDE9E9" transform="translate(759,783)"/>
<path d="M0 0 C1.76647063 2.64970595 2.97014997 5.01498099 4.1875 7.9375 C4.55230469 8.79214844 4.91710937 9.64679687 5.29296875 10.52734375 C6.05225403 13.18274477 5.93187432 14.44179725 5 17 C3.54851359 14.2232434 2.38091317 11.46693581 1.375 8.5 C0.98441406 7.37078125 0.98441406 7.37078125 0.5859375 6.21875 C0 4 0 4 0 0 Z " fill="#F0D1D2" transform="translate(705,731)"/>
<path d="M0 0 C0.66 0 1.32 0 2 0 C2 0.66 2 1.32 2 2 C3.68029297 1.96519531 3.68029297 1.96519531 5.39453125 1.9296875 C6.86718084 1.91092763 8.33983763 1.89272766 9.8125 1.875 C10.55048828 1.85824219 11.28847656 1.84148438 12.04882812 1.82421875 C15.91246426 1.78925372 17.70903668 1.80602445 21 4 C14.4 4 7.8 4 1 4 C0.67 2.68 0.34 1.36 0 0 Z " fill="#AD100F" transform="translate(491,731)"/>
<path d="M0 0 C-1.98 0.99 -1.98 0.99 -4 2 C-3.34 2.66 -2.68 3.32 -2 4 C-3.65 4.33 -5.3 4.66 -7 5 C-7 4.34 -7 3.68 -7 3 C-8.98 3.33 -10.96 3.66 -13 4 C-11.72807637 1.45615274 -10.80051531 1.30631844 -8.1875 0.3125 C-7.50042969 0.04050781 -6.81335938 -0.23148438 -6.10546875 -0.51171875 C-3.70623504 -1.06812731 -2.3105636 -0.77364938 0 0 Z " fill="#C02E2B" transform="translate(274,714)"/>
<path d="M0 0 C0.99 0.33 1.98 0.66 3 1 C1.77946141 4.66161578 0.63217696 5.16270474 -2.5625 7.1875 C-3.38878906 7.71730469 -4.21507812 8.24710937 -5.06640625 8.79296875 C-5.70449219 9.19128906 -6.34257813 9.58960938 -7 10 C-6.62890625 8.078125 -6.62890625 8.078125 -6 6 C-3.9375 4.75 -3.9375 4.75 -2 4 C-2.33 3.34 -2.66 2.68 -3 2 C-2.01 1.34 -1.02 0.68 0 0 Z " fill="#C21916" transform="translate(719,462)"/>
<path d="M0 0 C0.66 0 1.32 0 2 0 C2.22304441 1.74818591 2.4278645 3.49870323 2.625 5.25 C2.74101563 6.22453125 2.85703125 7.1990625 2.9765625 8.203125 C3.00112537 11.13429393 2.5312717 12.54528964 1 15 C-0.00109515 11.68929162 -0.10356134 8.69915231 -0.0625 5.25 C-0.05347656 4.26515625 -0.04445313 3.2803125 -0.03515625 2.265625 C-0.02355469 1.51796875 -0.01195312 0.7703125 0 0 Z " fill="#D21A18" transform="translate(603,265)"/>
<path d="M0 0 C1.2065625 0.0309375 1.2065625 0.0309375 2.4375 0.0625 C0.12212045 3.78364571 -1.84829473 6.67479661 -5.5625 9.0625 C-5.5625 7.0825 -5.5625 5.1025 -5.5625 3.0625 C-4.2425 3.3925 -2.9225 3.7225 -1.5625 4.0625 C-1.5625 3.4025 -1.5625 2.7425 -1.5625 2.0625 C-2.2225 1.7325 -2.8825 1.4025 -3.5625 1.0625 C-2.5625 0.0625 -2.5625 0.0625 0 0 Z " fill="#E9D7D6" transform="translate(468.5625,237.9375)"/>
<path d="M0 0 C3.01111938 4.51667907 3.10067926 7.6639991 3 13 C2.67 12.01 2.34 11.02 2 10 C1.34 10 0.68 10 0 10 C0 8.02 0 6.04 0 4 C-0.99 3.67 -1.98 3.34 -3 3 C-2.01 2.01 -1.02 1.02 0 0 Z " fill="#E9D3D1" transform="translate(266,328)"/>
<path d="M0 0 C-6.1610484 3.22054803 -10.0329749 4.13398125 -17 4 C-17 3.67 -17 3.34 -17 3 C-15.906875 2.690625 -14.81375 2.38125 -13.6875 2.0625 C-11.44592006 1.41662103 -9.2130649 0.7376883 -7 0 C-3.93274678 -0.95851663 -3.19759745 -1.06586582 0 0 Z " fill="#F2E2E2" transform="translate(515,792)"/>
<path d="M0 0 C0.33 1.32 0.66 2.64 1 4 C1.66 4 2.32 4 3 4 C3 4.99 3 5.98 3 7 C2.195625 7.12375 1.39125 7.2475 0.5625 7.375 C-0.7059375 7.684375 -0.7059375 7.684375 -2 8 C-2.33 8.66 -2.66 9.32 -3 10 C-3.66 9.67 -4.32 9.34 -5 9 C-3.35 6.03 -1.7 3.06 0 0 Z " fill="#BE1412" transform="translate(476,228)"/>
<path d="M0 0 C2.29199177 0.14063135 4.58359186 0.28765943 6.875 0.4375 C8.15117187 0.51871094 9.42734375 0.59992187 10.7421875 0.68359375 C14 1 14 1 16 2 C16 2.66 16 3.32 16 4 C10.58201328 3.30834212 5.3177215 2.24200752 0 1 C0 0.67 0 0.34 0 0 Z " fill="#BB3433" transform="translate(269,770)"/>
<path d="M0 0 C0.99 0.33 1.98 0.66 3 1 C2.34 1 1.68 1 1 1 C1 1.66 1 2.32 1 3 C1.66 3 2.32 3 3 3 C3 3.66 3 4.32 3 5 C-0.60296594 5.41176754 -1.78402067 5.1535853 -4.8125 3 C-5.534375 2.34 -6.25625 1.68 -7 1 C-5.5459375 1.0309375 -5.5459375 1.0309375 -4.0625 1.0625 C-1.12534105 1.35618499 -1.12534105 1.35618499 0 0 Z " fill="#DAE5E4" transform="translate(311,752)"/>
<path d="M0 0 C0.33 0.66 0.66 1.32 1 2 C1.66 2 2.32 2 3 2 C3 1.34 3 0.68 3 0 C4.32 0.33 5.64 0.66 7 1 C4.69 2.65 2.38 4.3 0 6 C-0.66 5.67 -1.32 5.34 -2 5 C-1.34 3.35 -0.68 1.7 0 0 Z " fill="#C81915" transform="translate(752,435)"/>
<path d="M0 0 C0.33 0 0.66 0 1 0 C2.51282051 11.34615385 2.51282051 11.34615385 0 17 C-1.54897985 13.9020403 -0.83239539 10.73783448 -0.5625 7.375 C-0.51029297 6.66859375 -0.45808594 5.9621875 -0.40429688 5.234375 C-0.27458793 3.48920013 -0.13795046 1.74454275 0 0 Z " fill="#C40C08" transform="translate(412,769)"/>
<path d="M0 0 C1.32 0 2.64 0 4 0 C4 0.66 4 1.32 4 2 C5.65 2.33 7.3 2.66 9 3 C8.67 3.66 8.34 4.32 8 5 C5.36 5 2.72 5 0 5 C0.66 4.01 1.32 3.02 2 2 C1.34 1.34 0.68 0.68 0 0 Z " fill="#E4D7D5" transform="translate(442,568)"/>
<path d="M0 0 C0.99 0 1.98 0 3 0 C3.33 1.32 3.66 2.64 4 4 C2.35 5.32 0.7 6.64 -1 8 C-1.33 7.34 -1.66 6.68 -2 6 C-2.66 5.67 -3.32 5.34 -4 5 C-2.35 5 -0.7 5 1 5 C1 4.34 1 3.68 1 3 C0.34 3 -0.32 3 -1 3 C-0.67 2.01 -0.34 1.02 0 0 Z " fill="#C61511" transform="translate(692,481)"/>
<path d="M0 0 C0.33 0 0.66 0 1 0 C1.36463732 1.74784829 1.7163078 3.49840502 2.0625 5.25 C2.25972656 6.22453125 2.45695312 7.1990625 2.66015625 8.203125 C2.98397535 10.868119 2.85503199 12.48871723 2 15 C-0.87511449 12.12488551 -0.83614951 8.89517306 -1 5 C-0.5625 2 -0.5625 2 0 0 Z " fill="#E6BAB8" transform="translate(428,326)"/>
<path d="M0 0 C3.82097239 0.53069061 6.06171403 1.49701566 9 4 C4.25 3.125 4.25 3.125 2 2 C2 2.66 2 3.32 2 4 C0.35 4 -1.3 4 -3 4 C-3 3.34 -3 2.68 -3 2 C-2.01 2 -1.02 2 0 2 C0 1.34 0 0.68 0 0 Z " fill="#BA140F" transform="translate(512,715)"/>
<path d="M0 0 C2.10478604 0.11409682 4.20884577 0.24165361 6.3125 0.375 C7.48425781 0.44460938 8.65601563 0.51421875 9.86328125 0.5859375 C13 1 13 1 16 3 C12.7 2.67 9.4 2.34 6 2 C6 2.66 6 3.32 6 4 C5.34 4 4.68 4 4 4 C4 3.01 4 2.02 4 1 C2.68 0.67 1.36 0.34 0 0 Z " fill="#F2E8E8" transform="translate(570,567)"/>
<path d="M0 0 C0.33 0 0.66 0 1 0 C0.44854729 5.23880078 -0.42922093 9.97350697 -2 15 C-2.33 15 -2.66 15 -3 15 C-3.33 12.69 -3.66 10.38 -4 8 C-3.01 7.67 -2.02 7.34 -1 7 C-0.67 4.69 -0.34 2.38 0 0 Z " fill="#B21413" transform="translate(750,349)"/>
<path d="M0 0 C2.33294775 -0.04241723 4.66702567 -0.04092937 7 0 C8 1 8 1 8.0625 4.0625 C8.041875 5.031875 8.02125 6.00125 8 7 C7.34 7 6.68 7 6 7 C6 5.35 6 3.7 6 2 C4.35 2 2.7 2 1 2 C0.67 1.34 0.34 0.68 0 0 Z " fill="#DD0C09" transform="translate(747,329)"/>
<path d="M0 0 C0 0.66 0 1.32 0 2 C-4.29 2 -8.58 2 -13 2 C-7.92858749 -0.53570625 -5.51630428 -1.37907607 0 0 Z " fill="#C42B29" transform="translate(748,330)"/>
<path d="M0 0 C2 0 2 0 3.625 1.5 C4.07875 1.995 4.5325 2.49 5 3 C5 2.34 5 1.68 5 1 C5.66 1.33 6.32 1.66 7 2 C6 4 6 4 3 6 C2.7497843 9.08365871 2.7497843 9.08365871 3 12 C2.67 12 2.34 12 2 12 C1.34 8.04 0.68 4.08 0 0 Z " fill="#BD110E" transform="translate(418,271)"/>
<path d="M0 0 C1.98 0.66 3.96 1.32 6 2 C5.67 4.31 5.34 6.62 5 9 C1.9083091 6.47043472 1.09068668 3.77545388 0 0 Z " fill="#E9E8E7" transform="translate(547,225)"/>
<path d="M0 0 C3.14031285 3.41338353 3.74525692 6.41462451 4 11 C3.34 11.66 2.68 12.32 2 13 C1.66127487 11.58461283 1.32925376 10.16762037 1 8.75 C0.814375 7.96109375 0.62875 7.1721875 0.4375 6.359375 C0 4 0 4 0 0 Z " fill="#BC2724" transform="translate(431,729)"/>
<path d="M0 0 C-0.99 1.485 -0.99 1.485 -2 3 C-8.93 2.505 -8.93 2.505 -16 2 C-16 1.67 -16 1.34 -16 1 C-10.65097076 0.40801257 -5.39115154 -0.14187241 0 0 Z " fill="#B80705" transform="translate(404,729)"/>
<path d="M0 0 C0.66 0.33 1.32 0.66 2 1 C2.73075648 3.3140622 3.40138258 5.64828869 4 8 C3.34 8 2.68 8 2 8 C1.67 7.34 1.34 6.68 1 6 C0.01 6.99 -0.98 7.98 -2 9 C-1.34 6.03 -0.68 3.06 0 0 Z " fill="#D4E2E1" transform="translate(693,705)"/>
<path d="M0 0 C4.59306496 1.4859916 7.43569245 3.85014682 11 7 C8 8 8 8 5 7 C4.67 6.01 4.34 5.02 4 4 C2.70644173 2.62804426 1.37701298 1.28817344 0 0 Z " fill="#ECE1E0" transform="translate(269,440)"/>
<path d="M0 0 C0.99 0.495 0.99 0.495 2 1 C2 1.66 2 2.32 2 3 C2.99 3.33 3.98 3.66 5 4 C6.38671875 5.62890625 6.38671875 5.62890625 7.6875 7.5625 C8.12449219 8.20316406 8.56148438 8.84382813 9.01171875 9.50390625 C9.50091797 10.24447266 9.50091797 10.24447266 10 11 C9.01 11.495 9.01 11.495 8 12 C6.66081194 10.37982158 5.3288031 8.75370657 4 7.125 C3.2575 6.22007812 2.515 5.31515625 1.75 4.3828125 C0 2 0 2 0 0 Z " fill="#ECE2DF" transform="translate(363,305)"/>
<path d="M0 0 C0.66 0.33 1.32 0.66 2 1 C2 2.32 2 3.64 2 5 C2.99 5.33 3.98 5.66 5 6 C4.01 6.99 3.02 7.98 2 9 C1.67 8.01 1.34 7.02 1 6 C0.34 6 -0.32 6 -1 6 C-0.67 4.02 -0.34 2.04 0 0 Z " fill="#DA1614" transform="translate(411,226)"/>
<path d="M0 0 C0.33 0.99 0.66 1.98 1 3 C-0.32 3.99 -1.64 4.98 -3 6 C-3.99 5.34 -4.98 4.68 -6 4 C-6 3.34 -6 2.68 -6 2 C-3 0 -3 0 0 0 Z " fill="#E5D4D3" transform="translate(519,785)"/>
<path d="M0 0 C1.32 0 2.64 0 4 0 C4.33 0.99 4.66 1.98 5 3 C5.66 3.66 6.32 4.32 7 5 C7.125 7.625 7.125 7.625 7 10 C4.3513141 6.80331012 2.06007659 3.60513403 0 0 Z " fill="#B7100F" transform="translate(518,739)"/>
<path d="M0 0 C0.99 0.33 1.98 0.66 3 1 C-1.69978858 5.82029598 -1.69978858 5.82029598 -5.40234375 6.33203125 C-7.62065332 6.31450906 -9.79311543 6.22068846 -12 6 C-12 5.67 -12 5.34 -12 5 C-10.95199219 4.83564453 -10.95199219 4.83564453 -9.8828125 4.66796875 C-8.51769531 4.43013672 -8.51769531 4.43013672 -7.125 4.1875 C-5.76761719 3.96126953 -5.76761719 3.96126953 -4.3828125 3.73046875 C-1.65587522 3.16948699 -1.65587522 3.16948699 0 0 Z " fill="#F2EDEC" transform="translate(344,336)"/>
<path d="M0 0 C2.31 0 4.62 0 7 0 C7 0.99 7 1.98 7 3 C7.99 3.33 8.98 3.66 10 4 C8.72125 3.896875 7.4425 3.79375 6.125 3.6875 C5.04605469 3.60048828 5.04605469 3.60048828 3.9453125 3.51171875 C2 3 2 3 0 0 Z " fill="#E3E7E5" transform="translate(271,325)"/>
<path d="M0 0 C0.99 0.33 1.98 0.66 3 1 C2.34 1 1.68 1 1 1 C1.7734375 1.61875 1.7734375 1.61875 2.5625 2.25 C3.036875 2.8275 3.51125 3.405 4 4 C3.6875 6.1875 3.6875 6.1875 3 8 C2.67 7.01 2.34 6.02 2 5 C1.01 5 0.02 5 -1 5 C-1.33 4.01 -1.66 3.02 -2 2 C-1.34 1.34 -0.68 0.68 0 0 Z " fill="#C21615" transform="translate(521,800)"/>
<path d="M0 0 C0.66 0.33 1.32 0.66 2 1 C1.67 1.66 1.34 2.32 1 3 C0.34 3 -0.32 3 -1 3 C-1 4.65 -1 6.3 -1 8 C-2.32 7.67 -3.64 7.34 -5 7 C-3.70700306 4.11562221 -2.34058637 2.12780579 0 0 Z " fill="#BD1E1C" transform="translate(468,722)"/>
<path d="M0 0 C1.98 0.495 1.98 0.495 4 1 C4 1.66 4 2.32 4 3 C3.34 3 2.68 3 2 3 C1.67 4.65 1.34 6.3 1 8 C0.34 8 -0.32 8 -1 8 C-1.125 2.25 -1.125 2.25 0 0 Z " fill="#E8DAD7" transform="translate(498,561)"/>
<path d="M0 0 C2.29633824 3.44450737 2.54016485 5.93812283 3 10 C2.01 10.495 2.01 10.495 1 11 C-0.98362069 8.08291076 -0.9876191 6.87619096 -0.625 3.25 C-0.41875 2.1775 -0.2125 1.105 0 0 Z " fill="#B7221F" transform="translate(640,554)"/>
<path d="M0 0 C2.79908133 2.79908133 2.72362983 5.13081763 3 9 C2.34 9.66 1.68 10.32 1 11 C-0.62950412 6.87831311 -1.26264601 4.29299643 0 0 Z " fill="#BE1716" transform="translate(637,542)"/>
<path d="M0 0 C0 0.66 0 1.32 0 2 C-1.2065625 2.4021875 -1.2065625 2.4021875 -2.4375 2.8125 C-3.283125 3.204375 -4.12875 3.59625 -5 4 C-5.33 4.99 -5.66 5.98 -6 7 C-6.99 7 -7.98 7 -9 7 C-7.68534669 3.05604006 -4.38536841 0 0 0 Z " fill="#C01A18" transform="translate(587,241)"/>
<path d="M0 0 C0.66 0 1.32 0 2 0 C2.33 2.64 2.66 5.28 3 8 C2.01 8.495 2.01 8.495 1 9 C-1.125 3.375 -1.125 3.375 0 0 Z " fill="#DBE3E3" transform="translate(765,796)"/>
<path d="M0 0 C0.99 0 1.98 0 3 0 C2.67 1.32 2.34 2.64 2 4 C1.34 3.67 0.68 3.34 0 3 C-0.66 4.98 -1.32 6.96 -2 9 C-2.33 8.34 -2.66 7.68 -3 7 C-2.06421005 4.64018187 -1.06652192 2.30368736 0 0 Z " fill="#EBE1E0" transform="translate(660,794)"/>
<path d="M0 0 C2 2 2 2 2 5 C1.34 5 0.68 5 0 5 C0 7.31 0 9.62 0 12 C-0.33 12 -0.66 12 -1 12 C-1.33 9.03 -1.66 6.06 -2 3 C-1.34 3 -0.68 3 0 3 C0 2.01 0 1.02 0 0 Z " fill="#B21310" transform="translate(527,747)"/>
<path d="M0 0 C2.0343459 1.41519715 2.90410393 2.54982123 3.421875 4.98046875 C3.66273952 6.98176954 3.83532741 8.9909944 4 11 C2 9 2 9 1.875 6.375 C1.91625 5.59125 1.9575 4.8075 2 4 C1.01 3.67 0.02 3.34 -1 3 C-0.67 2.01 -0.34 1.02 0 0 Z " fill="#EFE0E1" transform="translate(521,744)"/>
<path d="M0 0 C0.99 0.33 1.98 0.66 3 1 C2.195625 1.61875 1.39125 2.2375 0.5625 2.875 C-2.03874519 4.74164041 -2.03874519 4.74164041 -3 7 C-3.99 7 -4.98 7 -6 7 C-4.61990379 3.66476748 -3.15049348 1.81392049 0 0 Z " fill="#E9E7E6" transform="translate(736,453)"/>
<path d="M0 0 C2.15377564 2.62198774 3.40072174 4.64404172 4 8 C3.34 8 2.68 8 2 8 C1.34 7.34 0.68 6.68 0 6 C-0.66 6 -1.32 6 -2 6 C-1.34 4.02 -0.68 2.04 0 0 Z " fill="#BB1512" transform="translate(539,211)"/>
<path d="M0 0 C1.33617352 0.97528737 2.6688751 1.95533319 4 2.9375 C4.7425 3.48277344 5.485 4.02804687 6.25 4.58984375 C6.8275 5.05519531 7.405 5.52054688 8 6 C8 6.33 8 6.66 8 7 C5.6875 7.3125 5.6875 7.3125 3 7 C1.18116991 4.6167054 0 3.04181663 0 0 Z " fill="#EBE5E5" transform="translate(463,804)"/>
<path d="M0 0 C0.66 0.33 1.32 0.66 2 1 C1.67 3.31 1.34 5.62 1 8 C0.34 7.67 -0.32 7.34 -1 7 C-1.04254356 5.00045254 -1.04080783 2.99958364 -1 1 C-0.67 0.67 -0.34 0.34 0 0 Z " fill="#DFEAE8" transform="translate(346,738)"/>
<path d="M0 0 C1.32 0 2.64 0 4 0 C3.01 3.3 2.02 6.6 1 10 C0 7 0 7 0.5625 4.9375 C0.706875 4.298125 0.85125 3.65875 1 3 C0.34 2.34 -0.32 1.68 -1 1 C-0.67 0.67 -0.34 0.34 0 0 Z " fill="#B3110F" transform="translate(677,733)"/>
<path d="M0 0 C0.33 0 0.66 0 1 0 C1 2.31 1 4.62 1 7 C0.34 7 -0.32 7 -1 7 C-1 7.99 -1 8.98 -1 10 C-1.66 10 -2.32 10 -3 10 C-2.01 6.7 -1.02 3.4 0 0 Z " fill="#EDCECD" transform="translate(684,725)"/>
<path d="M0 0 C0.99 0.33 1.98 0.66 3 1 C2.34 1 1.68 1 1 1 C1 1.66 1 2.32 1 3 C1.66 3 2.32 3 3 3 C2.34 4.32 1.68 5.64 1 7 C0.34 6.67 -0.32 6.34 -1 6 C-1.042721 4.33388095 -1.04063832 2.66617115 -1 1 C-0.67 0.67 -0.34 0.34 0 0 Z " fill="#CE1915" transform="translate(289,448)"/>
<path d="M0 0 C0.66 0 1.32 0 2 0 C2.95024979 3.69541586 2.95024979 6.30458414 2 10 C-0.09350689 6.5980513 -0.17942163 3.94727588 0 0 Z " fill="#CB1D1C" transform="translate(272,344)"/>
<path d="M0 0 C1.125 3.75 1.125 3.75 0 6 C-1.32 5.67 -2.64 5.34 -4 5 C-3.34 4.01 -2.68 3.02 -2 2 C-2.66 1.67 -3.32 1.34 -4 1 C-2 0 -2 0 0 0 Z " fill="#C81914" transform="translate(464,247)"/>
<path d="M0 0 C0 2 0 4 0 6 C-2.31 6 -4.62 6 -7 6 C-4.74259377 3.66475218 -2.7194239 1.81294927 0 0 Z " fill="#C11819" transform="translate(596,234)"/>
<path d="M0 0 C0.66 0 1.32 0 2 0 C2.66 1.98 3.32 3.96 4 6 C2.68 5.34 1.36 4.68 0 4 C0 4.99 0 5.98 0 7 C-0.66 7 -1.32 7 -2 7 C-1.34 4.69 -0.68 2.38 0 0 Z " fill="#AC1715" transform="translate(511,153)"/>
<path d="M0 0 C2.5654594 2.5654594 2.54046087 4.47686668 3 8 C2.01 8 1.02 8 0 8 C0 5.36 0 2.72 0 0 Z " fill="#BB1714" transform="translate(743,744)"/>
<path d="M0 0 C0.66 0.33 1.32 0.66 2 1 C2 2.32 2 3.64 2 5 C1.01 5 0.02 5 -1 5 C-0.67 3.35 -0.34 1.7 0 0 Z M-1 6 C-1 9 -1 9 -1 9 Z " fill="#C81A17" transform="translate(472,719)"/>
<path d="M0 0 C3.465 1.485 3.465 1.485 7 3 C3.92677456 3.91058531 1.19902639 4.08886184 -2 4 C-1.34 3.67 -0.68 3.34 0 3 C0 2.01 0 1.02 0 0 Z " fill="#BD1A17" transform="translate(415,716)"/>
<path d="M0 0 C1.98 0 3.96 0 6 0 C3.14693203 2.32472205 0.45925163 3.7508258 -3 5 C-2.67 4.01 -2.34 3.02 -2 2 C-1.34 2 -0.68 2 0 2 C0 1.34 0 0.68 0 0 Z " fill="#EFD2D2" transform="translate(259,425)"/>
<path d="M0 0 C0.99 0 1.98 0 3 0 C4.5625 2.3125 4.5625 2.3125 6 5 C6.99 6.485 6.99 6.485 8 8 C4.63820226 6.55922954 2.40843732 4.75249979 0 2 C0 1.34 0 0.68 0 0 Z " fill="#EEECEA" transform="translate(411,360)"/>
<path d="M0 0 C0.33 0 0.66 0 1 0 C1.33 3.3 1.66 6.6 2 10 C1.01 10.495 1.01 10.495 0 11 C-1.28571429 3.57142857 -1.28571429 3.57142857 0 0 Z " fill="#E5E7E7" transform="translate(595,331)"/>
<path d="M0 0 C0.99 0.33 1.98 0.66 3 1 C2.625 3.9375 2.625 3.9375 2 7 C1.01 7.495 1.01 7.495 0 8 C0 5.36 0 2.72 0 0 Z " fill="#E5E8E6" transform="translate(347,327)"/>
<path d="M0 0 C2 3 2 3 2 7 C0.68 6.67 -0.64 6.34 -2 6 C-1.34 4.02 -0.68 2.04 0 0 Z " fill="#C51917" transform="translate(494,190)"/>
<path d="M0 0 C0.99 0.33 1.98 0.66 3 1 C1 4 1 4 -2.125 4.6875 C-3.07375 4.790625 -4.0225 4.89375 -5 5 C-3.35 3.35 -1.7 1.7 0 0 Z " fill="#EBE7E4" transform="translate(521,809)"/>
<path d="M0 0 C3.08669204 3.08669204 3.44855089 3.91927658 4 8 C3.01 8.495 3.01 8.495 2 9 C1.34 6.03 0.68 3.06 0 0 Z " fill="#B41F1E" transform="translate(763,799)"/>
<path d="M0 0 C0.66 0 1.32 0 2 0 C2.33 1.65 2.66 3.3 3 5 C1.68 5.99 0.36 6.98 -1 8 C-0.67 5.36 -0.34 2.72 0 0 Z " fill="#E4E5E6" transform="translate(480,747)"/>
<path d="M0 0 C1.9375 0.375 1.9375 0.375 4 1 C4.33 1.66 4.66 2.32 5 3 C4.01 4.485 4.01 4.485 3 6 C2.67 5.01 2.34 4.02 2 3 C1.34 3 0.68 3 0 3 C0 2.01 0 1.02 0 0 Z " fill="#C51C1A" transform="translate(369,738)"/>
<path d="M0 0 C2.64 0.33 5.28 0.66 8 1 C6 3 6 3 2.875 3.125 C1.451875 3.063125 1.451875 3.063125 0 3 C0 2.01 0 1.02 0 0 Z " fill="#E7D8D6" transform="translate(533,560)"/>
</svg>
