<?xml version="1.0" standalone="no"?>
<!DOCTYPE svg PUBLIC "-//W3C//DTD SVG 20010904//EN"
 "http://www.w3.org/TR/2001/REC-SVG-20010904/DTD/svg10.dtd">
<svg version="1.0" xmlns="http://www.w3.org/2000/svg"
 width="198.000000pt" height="210.000000pt" viewBox="0 0 198.000000 210.000000"
 preserveAspectRatio="xMidYMid meet">

<g transform="translate(0.000000,210.000000) scale(0.100000,-0.100000)"
fill="#000000" stroke="none">
<path d="M898 1975 c-58 -120 -62 -125 -92 -125 -19 0 -52 14 -85 35 -30 20
-56 34 -58 31 -2 -2 1 -23 7 -45 16 -61 51 -267 57 -338 5 -62 5 -63 -19 -63
-18 0 -40 17 -79 62 -69 80 -125 138 -133 138 -3 0 -9 -18 -12 -41 -4 -22 -15
-50 -24 -62 l-18 -22 -99 24 c-54 13 -105 25 -114 28 -15 3 -15 -2 -3 -49 7
-29 22 -86 34 -126 12 -41 19 -80 16 -87 -3 -8 -24 -24 -48 -36 l-43 -22 30
-23 c17 -13 80 -62 140 -109 221 -171 225 -175 225 -214 0 -20 -5 -53 -11 -74
-6 -22 -8 -42 -4 -45 3 -3 56 4 118 16 153 30 227 42 250 42 19 0 20 -7 15
-180 l-5 -180 38 0 38 0 -6 182 -6 181 44 -7 c24 -4 71 -11 104 -16 33 -5 100
-16 149 -24 49 -9 91 -14 92 -13 2 1 -1 20 -6 42 -5 22 -10 56 -10 75 0 34 8
41 195 188 107 84 195 157 195 162 0 4 -13 11 -29 15 -16 3 -37 15 -47 26 -17
19 -16 24 19 146 20 70 34 129 32 131 -1 2 -53 -9 -113 -24 -127 -32 -134 -30
-155 44 -8 25 -18 47 -23 49 -5 1 -26 -19 -46 -45 -21 -26 -62 -73 -91 -105
-98 -106 -107 -65 -48 226 18 87 31 162 29 167 -2 5 -32 -9 -68 -31 -36 -21
-70 -39 -77 -39 -19 0 -56 58 -104 162 -62 138 -71 136 -151 -27z"/>
<path d="M1160 300 l0 -230 50 0 50 0 0 230 0 230 -50 0 -50 0 0 -230z"/>
<path d="M1468 493 c-9 -21 -35 -90 -58 -153 -23 -63 -55 -150 -71 -192 l-29
-78 54 0 c48 0 55 3 61 23 23 80 18 77 124 77 l96 0 18 -50 18 -50 49 0 c43 0
50 3 50 19 0 11 -4 22 -9 25 -5 3 -12 18 -16 33 -6 26 -64 190 -115 326 l-21
57 -68 0 -68 0 -15 -37z m92 -85 c0 -7 9 -30 19 -52 11 -23 23 -53 26 -68 l7
-28 -61 0 c-64 0 -73 8 -52 48 6 9 17 41 26 70 9 28 21 50 26 46 5 -3 9 -10 9
-16z"/>
<path d="M1020 420 c0 -47 -1 -50 -19 -40 -30 15 -110 12 -141 -6 -40 -24 -62
-69 -65 -130 -3 -100 29 -153 108 -175 33 -9 45 -7 79 9 32 17 40 18 45 6 3
-8 19 -14 39 -14 l34 0 0 200 0 200 -40 0 -40 0 0 -50z m-18 -117 c25 -29 31
-77 14 -117 -18 -44 -53 -62 -93 -49 -50 17 -69 93 -38 153 14 26 21 30 59 30
28 0 48 -6 58 -17z"/>
<path d="M223 393 c-34 -7 -73 -59 -73 -99 0 -43 26 -69 82 -84 83 -22 91 -25
102 -42 26 -42 -72 -60 -104 -20 -13 15 -29 22 -54 22 -46 0 -47 -21 -3 -65
98 -98 292 -11 233 104 -13 24 -28 33 -73 47 -92 26 -105 33 -101 51 2 10 18
22 36 27 28 8 35 6 48 -12 11 -16 26 -22 55 -22 46 0 48 9 12 50 -36 40 -95
56 -160 43z"/>
<path d="M517 375 c-25 -14 -47 -50 -47 -76 0 -5 17 -9 38 -9 26 0 41 6 50 20
8 13 23 20 45 20 36 0 57 -15 57 -41 0 -13 -13 -19 -62 -24 -71 -8 -110 -25
-132 -57 -24 -34 -20 -74 13 -110 27 -30 35 -33 85 -32 44 0 61 5 81 24 21 19
25 21 25 7 0 -13 9 -17 35 -17 l35 0 0 123 c0 113 -2 124 -24 152 -22 27 -29
30 -97 32 -53 2 -82 -1 -102 -12z m145 -196 c-10 -65 -128 -77 -120 -11 3 24
9 28 58 38 30 6 58 10 61 8 3 -2 4 -17 1 -35z"/>
</g>
</svg>
